<?xml version="1.0" encoding="UTF-8" standalone="no"?>
<!DOCTYPE svg PUBLIC "-//W3C//DTD SVG 1.1//EN"
 "http://www.w3.org/Graphics/SVG/1.1/DTD/svg11.dtd">
<!-- Generated by graphviz version 2.38.0 (20140413.2041)
 -->
<!-- Title: snakemake_dag Pages: 1 -->
<svg width="492pt" height="980pt"
 viewBox="0.00 0.00 491.74 980.00" xmlns="http://www.w3.org/2000/svg" xmlns:xlink="http://www.w3.org/1999/xlink">
<g id="graph0" class="graph" transform="scale(1 1) rotate(0) translate(4 976)">
<title>snakemake_dag</title>
<polygon fill="white" stroke="none" points="-4,4 -4,-976 487.741,-976 487.741,4 -4,4"/>
<!-- 0 -->
<g id="node1" class="node"><title>0</title>
<path fill="none" stroke="#d87556" stroke-width="2" d="M209,-36C209,-36 179,-36 179,-36 173,-36 167,-30 167,-24 167,-24 167,-12 167,-12 167,-6 173,-0 179,-0 179,-0 209,-0 209,-0 215,-0 221,-6 221,-12 221,-12 221,-24 221,-24 221,-30 215,-36 209,-36"/>
<text text-anchor="middle" x="194" y="-15" font-family="sans" font-size="10.00">all</text>
</g>
<!-- 1 -->
<g id="node2" class="node"><title>1</title>
<path fill="none" stroke="#afd856" stroke-width="2" d="M163.776,-108C163.776,-108 84.2242,-108 84.2242,-108 78.2242,-108 72.2242,-102 72.2242,-96 72.2242,-96 72.2242,-84 72.2242,-84 72.2242,-78 78.2242,-72 84.2242,-72 84.2242,-72 163.776,-72 163.776,-72 169.776,-72 175.776,-78 175.776,-84 175.776,-84 175.776,-96 175.776,-96 175.776,-102 169.776,-108 163.776,-108"/>
<text text-anchor="middle" x="124" y="-87" font-family="sans" font-size="10.00">rename_consensus</text>
</g>
<!-- 1&#45;&gt;0 -->
<g id="edge1" class="edge"><title>1&#45;&gt;0</title>
<path fill="none" stroke="grey" stroke-width="2" d="M141.303,-71.6966C149.865,-63.135 160.344,-52.6562 169.696,-43.3045"/>
<polygon fill="grey" stroke="grey" stroke-width="2" points="172.299,-45.6503 176.896,-36.1043 167.35,-40.7005 172.299,-45.6503"/>
</g>
<!-- 2 -->
<g id="node3" class="node"><title>2</title>
<path fill="none" stroke="#afd856" stroke-width="2" d="M304.776,-108C304.776,-108 225.224,-108 225.224,-108 219.224,-108 213.224,-102 213.224,-96 213.224,-96 213.224,-84 213.224,-84 213.224,-78 219.224,-72 225.224,-72 225.224,-72 304.776,-72 304.776,-72 310.776,-72 316.776,-78 316.776,-84 316.776,-84 316.776,-96 316.776,-96 316.776,-102 310.776,-108 304.776,-108"/>
<text text-anchor="middle" x="265" y="-87" font-family="sans" font-size="10.00">rename_consensus</text>
</g>
<!-- 2&#45;&gt;0 -->
<g id="edge2" class="edge"><title>2&#45;&gt;0</title>
<path fill="none" stroke="grey" stroke-width="2" d="M247.449,-71.6966C238.766,-63.135 228.137,-52.6562 218.652,-43.3045"/>
<polygon fill="grey" stroke="grey" stroke-width="2" points="220.927,-40.6327 211.349,-36.1043 216.012,-45.6175 220.927,-40.6327"/>
</g>
<!-- 3 -->
<g id="node4" class="node"><title>3</title>
<path fill="none" stroke="#56d8a9" stroke-width="2" d="M126.347,-180C126.347,-180 41.6532,-180 41.6532,-180 35.6532,-180 29.6532,-174 29.6532,-168 29.6532,-168 29.6532,-156 29.6532,-156 29.6532,-150 35.6532,-144 41.6532,-144 41.6532,-144 126.347,-144 126.347,-144 132.347,-144 138.347,-150 138.347,-156 138.347,-156 138.347,-168 138.347,-168 138.347,-174 132.347,-180 126.347,-180"/>
<text text-anchor="middle" x="84" y="-159" font-family="sans" font-size="10.00">generate_consensus</text>
</g>
<!-- 3&#45;&gt;1 -->
<g id="edge3" class="edge"><title>3&#45;&gt;1</title>
<path fill="none" stroke="grey" stroke-width="2" d="M93.8876,-143.697C98.4893,-135.644 104.06,-125.894 109.153,-116.982"/>
<polygon fill="grey" stroke="grey" stroke-width="2" points="112.304,-118.523 114.226,-108.104 106.226,-115.05 112.304,-118.523"/>
</g>
<!-- 4 -->
<g id="node5" class="node"><title>4</title>
<path fill="none" stroke="#56d8a9" stroke-width="2" d="M317.347,-180C317.347,-180 232.653,-180 232.653,-180 226.653,-180 220.653,-174 220.653,-168 220.653,-168 220.653,-156 220.653,-156 220.653,-150 226.653,-144 232.653,-144 232.653,-144 317.347,-144 317.347,-144 323.347,-144 329.347,-150 329.347,-156 329.347,-156 329.347,-168 329.347,-168 329.347,-174 323.347,-180 317.347,-180"/>
<text text-anchor="middle" x="275" y="-159" font-family="sans" font-size="10.00">generate_consensus</text>
</g>
<!-- 4&#45;&gt;2 -->
<g id="edge4" class="edge"><title>4&#45;&gt;2</title>
<path fill="none" stroke="grey" stroke-width="2" d="M272.528,-143.697C271.426,-135.983 270.102,-126.712 268.873,-118.112"/>
<polygon fill="grey" stroke="grey" stroke-width="2" points="272.323,-117.509 267.443,-108.104 265.393,-118.499 272.323,-117.509"/>
</g>
<!-- 5 -->
<g id="node6" class="node"><title>5</title>
<path fill="none" stroke="#d85656" stroke-width="2" d="M94.2095,-756C94.2095,-756 35.7905,-756 35.7905,-756 29.7905,-756 23.7905,-750 23.7905,-744 23.7905,-744 23.7905,-732 23.7905,-732 23.7905,-726 29.7905,-720 35.7905,-720 35.7905,-720 94.2095,-720 94.2095,-720 100.209,-720 106.209,-726 106.209,-732 106.209,-732 106.209,-744 106.209,-744 106.209,-750 100.209,-756 94.2095,-756"/>
<text text-anchor="middle" x="65" y="-735" font-family="sans" font-size="10.00">best_reference</text>
</g>
<!-- 5&#45;&gt;3 -->
<g id="edge5" class="edge"><title>5&#45;&gt;3</title>
<path fill="none" stroke="grey" stroke-width="2" d="M51.2152,-719.789C32.135,-694.179 0,-643.803 0,-595 0,-595 0,-595 0,-305 0,-263.114 8.7404,-251.482 31,-216 37.5787,-205.513 46.5871,-195.502 55.3108,-187.06"/>
<polygon fill="grey" stroke="grey" stroke-width="2" points="57.8888,-189.442 62.8356,-180.073 53.1259,-184.313 57.8888,-189.442"/>
</g>
<!-- 6 -->
<g id="node7" class="node"><title>6</title>
<path fill="none" stroke="#d8bc56" stroke-width="2" d="M114.539,-324C114.539,-324 47.4609,-324 47.4609,-324 41.4609,-324 35.4609,-318 35.4609,-312 35.4609,-312 35.4609,-300 35.4609,-300 35.4609,-294 41.4609,-288 47.4609,-288 47.4609,-288 114.539,-288 114.539,-288 120.539,-288 126.539,-294 126.539,-300 126.539,-300 126.539,-312 126.539,-312 126.539,-318 120.539,-324 114.539,-324"/>
<text text-anchor="middle" x="81" y="-303" font-family="sans" font-size="10.00">normalise_indels</text>
</g>
<!-- 5&#45;&gt;6 -->
<g id="edge12" class="edge"><title>5&#45;&gt;6</title>
<path fill="none" stroke="grey" stroke-width="2" d="M59.5361,-719.713C51.6467,-693.175 38,-640.672 38,-595 38,-595 38,-595 38,-449 38,-407.295 55.2003,-361.542 67.8439,-333.545"/>
<polygon fill="grey" stroke="grey" stroke-width="2" points="71.0452,-334.961 72.0904,-324.418 64.6985,-332.008 71.0452,-334.961"/>
</g>
<!-- 13 -->
<g id="node14" class="node"><title>13</title>
<path fill="none" stroke="#d89c56" stroke-width="2" d="M165.529,-468C165.529,-468 118.471,-468 118.471,-468 112.471,-468 106.471,-462 106.471,-456 106.471,-456 106.471,-444 106.471,-444 106.471,-438 112.471,-432 118.471,-432 118.471,-432 165.529,-432 165.529,-432 171.529,-432 177.529,-438 177.529,-444 177.529,-444 177.529,-456 177.529,-456 177.529,-462 171.529,-468 165.529,-468"/>
<text text-anchor="middle" x="142" y="-447" font-family="sans" font-size="10.00">bcftools_call</text>
</g>
<!-- 5&#45;&gt;13 -->
<g id="edge24" class="edge"><title>5&#45;&gt;13</title>
<path fill="none" stroke="grey" stroke-width="2" d="M63.8749,-719.988C61.9299,-680.206 60.9827,-578.812 95,-504 99.7549,-493.543 107.297,-483.661 114.959,-475.327"/>
<polygon fill="grey" stroke="grey" stroke-width="2" points="117.49,-477.744 121.954,-468.135 112.472,-472.864 117.49,-477.744"/>
</g>
<!-- 24 -->
<g id="node25" class="node"><title>24</title>
<path fill="none" stroke="#88d856" stroke-width="2" d="M211.399,-684C211.399,-684 120.601,-684 120.601,-684 114.601,-684 108.601,-678 108.601,-672 108.601,-672 108.601,-660 108.601,-660 108.601,-654 114.601,-648 120.601,-648 120.601,-648 211.399,-648 211.399,-648 217.399,-648 223.399,-654 223.399,-660 223.399,-660 223.399,-672 223.399,-672 223.399,-678 217.399,-684 211.399,-684"/>
<text text-anchor="middle" x="166" y="-663" font-family="sans" font-size="10.00">minimap_to_genotype</text>
</g>
<!-- 5&#45;&gt;24 -->
<g id="edge39" class="edge"><title>5&#45;&gt;24</title>
<path fill="none" stroke="grey" stroke-width="2" d="M89.7074,-719.876C102.669,-710.893 118.728,-699.763 132.765,-690.034"/>
<polygon fill="grey" stroke="grey" stroke-width="2" points="134.972,-692.763 141.198,-684.19 130.985,-687.009 134.972,-692.763"/>
</g>
<!-- 6&#45;&gt;3 -->
<g id="edge6" class="edge"><title>6&#45;&gt;3</title>
<path fill="none" stroke="grey" stroke-width="2" d="M96.6099,-287.774C104.373,-278.03 112.946,-265.184 117,-252 121.703,-236.707 121.398,-231.384 117,-216 114.287,-206.51 109.328,-197.065 104.065,-188.834"/>
<polygon fill="grey" stroke="grey" stroke-width="2" points="106.858,-186.717 98.3265,-180.434 101.078,-190.666 106.858,-186.717"/>
</g>
<!-- 7 -->
<g id="node8" class="node"><title>7</title>
<path fill="none" stroke="#ced856" stroke-width="2" d="M96.2514,-252C96.2514,-252 51.7486,-252 51.7486,-252 45.7486,-252 39.7486,-246 39.7486,-240 39.7486,-240 39.7486,-228 39.7486,-228 39.7486,-222 45.7486,-216 51.7486,-216 51.7486,-216 96.2514,-216 96.2514,-216 102.251,-216 108.251,-222 108.251,-228 108.251,-228 108.251,-240 108.251,-240 108.251,-246 102.251,-252 96.2514,-252"/>
<text text-anchor="middle" x="74" y="-231" font-family="sans" font-size="10.00">index_norm</text>
</g>
<!-- 6&#45;&gt;7 -->
<g id="edge15" class="edge"><title>6&#45;&gt;7</title>
<path fill="none" stroke="grey" stroke-width="2" d="M79.2697,-287.697C78.4983,-279.983 77.5712,-270.712 76.7112,-262.112"/>
<polygon fill="grey" stroke="grey" stroke-width="2" points="80.1882,-261.706 75.7104,-252.104 73.2229,-262.403 80.1882,-261.706"/>
</g>
<!-- 7&#45;&gt;3 -->
<g id="edge7" class="edge"><title>7&#45;&gt;3</title>
<path fill="none" stroke="grey" stroke-width="2" d="M76.4719,-215.697C77.5739,-207.983 78.8982,-198.712 80.1268,-190.112"/>
<polygon fill="grey" stroke="grey" stroke-width="2" points="83.607,-190.499 81.5565,-180.104 76.6774,-189.509 83.607,-190.499"/>
</g>
<!-- 8 -->
<g id="node9" class="node"><title>8</title>
<path fill="none" stroke="#d85656" stroke-width="2" d="M333.209,-756C333.209,-756 274.791,-756 274.791,-756 268.791,-756 262.791,-750 262.791,-744 262.791,-744 262.791,-732 262.791,-732 262.791,-726 268.791,-720 274.791,-720 274.791,-720 333.209,-720 333.209,-720 339.209,-720 345.209,-726 345.209,-732 345.209,-732 345.209,-744 345.209,-744 345.209,-750 339.209,-756 333.209,-756"/>
<text text-anchor="middle" x="304" y="-735" font-family="sans" font-size="10.00">best_reference</text>
</g>
<!-- 8&#45;&gt;4 -->
<g id="edge8" class="edge"><title>8&#45;&gt;4</title>
<path fill="none" stroke="grey" stroke-width="2" d="M294.054,-719.706C279.995,-693.584 256,-642.102 256,-595 256,-595 256,-595 256,-305 256,-264.86 263.551,-218.897 269.132,-190.405"/>
<polygon fill="grey" stroke="grey" stroke-width="2" points="272.606,-190.883 271.155,-180.388 265.745,-189.498 272.606,-190.883"/>
</g>
<!-- 9 -->
<g id="node10" class="node"><title>9</title>
<path fill="none" stroke="#d8bc56" stroke-width="2" d="M365.539,-324C365.539,-324 298.461,-324 298.461,-324 292.461,-324 286.461,-318 286.461,-312 286.461,-312 286.461,-300 286.461,-300 286.461,-294 292.461,-288 298.461,-288 298.461,-288 365.539,-288 365.539,-288 371.539,-288 377.539,-294 377.539,-300 377.539,-300 377.539,-312 377.539,-312 377.539,-318 371.539,-324 365.539,-324"/>
<text text-anchor="middle" x="332" y="-303" font-family="sans" font-size="10.00">normalise_indels</text>
</g>
<!-- 8&#45;&gt;9 -->
<g id="edge17" class="edge"><title>8&#45;&gt;9</title>
<path fill="none" stroke="grey" stroke-width="2" d="M302.024,-719.978C299.11,-693.355 294,-640.226 294,-595 294,-595 294,-595 294,-449 294,-407.633 309.235,-361.722 320.412,-333.605"/>
<polygon fill="grey" stroke="grey" stroke-width="2" points="323.756,-334.673 324.31,-324.093 317.279,-332.019 323.756,-334.673"/>
</g>
<!-- 16 -->
<g id="node17" class="node"><title>16</title>
<path fill="none" stroke="#d89c56" stroke-width="2" d="M393.529,-468C393.529,-468 346.471,-468 346.471,-468 340.471,-468 334.471,-462 334.471,-456 334.471,-456 334.471,-444 334.471,-444 334.471,-438 340.471,-432 346.471,-432 346.471,-432 393.529,-432 393.529,-432 399.529,-432 405.529,-438 405.529,-444 405.529,-444 405.529,-456 405.529,-456 405.529,-462 399.529,-468 393.529,-468"/>
<text text-anchor="middle" x="370" y="-447" font-family="sans" font-size="10.00">bcftools_call</text>
</g>
<!-- 8&#45;&gt;16 -->
<g id="edge30" class="edge"><title>8&#45;&gt;16</title>
<path fill="none" stroke="grey" stroke-width="2" d="M307.931,-719.966C318.956,-672.192 350.241,-536.623 363.708,-478.266"/>
<polygon fill="grey" stroke="grey" stroke-width="2" points="367.168,-478.837 366.006,-468.306 360.347,-477.263 367.168,-478.837"/>
</g>
<!-- 25 -->
<g id="node26" class="node"><title>25</title>
<path fill="none" stroke="#88d856" stroke-width="2" d="M462.399,-684C462.399,-684 371.601,-684 371.601,-684 365.601,-684 359.601,-678 359.601,-672 359.601,-672 359.601,-660 359.601,-660 359.601,-654 365.601,-648 371.601,-648 371.601,-648 462.399,-648 462.399,-648 468.399,-648 474.399,-654 474.399,-660 474.399,-660 474.399,-672 474.399,-672 474.399,-678 468.399,-684 462.399,-684"/>
<text text-anchor="middle" x="417" y="-663" font-family="sans" font-size="10.00">minimap_to_genotype</text>
</g>
<!-- 8&#45;&gt;25 -->
<g id="edge41" class="edge"><title>8&#45;&gt;25</title>
<path fill="none" stroke="grey" stroke-width="2" d="M331.643,-719.876C346.418,-710.724 364.791,-699.342 380.703,-689.485"/>
<polygon fill="grey" stroke="grey" stroke-width="2" points="382.593,-692.431 389.251,-684.19 378.907,-686.481 382.593,-692.431"/>
</g>
<!-- 9&#45;&gt;4 -->
<g id="edge9" class="edge"><title>9&#45;&gt;4</title>
<path fill="none" stroke="grey" stroke-width="2" d="M325.124,-287.871C315.324,-263.457 297.248,-218.426 285.692,-189.635"/>
<polygon fill="grey" stroke="grey" stroke-width="2" points="288.873,-188.166 281.9,-180.189 282.377,-190.773 288.873,-188.166"/>
</g>
<!-- 10 -->
<g id="node11" class="node"><title>10</title>
<path fill="none" stroke="#ced856" stroke-width="2" d="M378.251,-252C378.251,-252 333.749,-252 333.749,-252 327.749,-252 321.749,-246 321.749,-240 321.749,-240 321.749,-228 321.749,-228 321.749,-222 327.749,-216 333.749,-216 333.749,-216 378.251,-216 378.251,-216 384.251,-216 390.251,-222 390.251,-228 390.251,-228 390.251,-240 390.251,-240 390.251,-246 384.251,-252 378.251,-252"/>
<text text-anchor="middle" x="356" y="-231" font-family="sans" font-size="10.00">index_norm</text>
</g>
<!-- 9&#45;&gt;10 -->
<g id="edge20" class="edge"><title>9&#45;&gt;10</title>
<path fill="none" stroke="grey" stroke-width="2" d="M337.933,-287.697C340.606,-279.898 343.826,-270.509 346.801,-261.829"/>
<polygon fill="grey" stroke="grey" stroke-width="2" points="350.203,-262.699 350.136,-252.104 343.582,-260.429 350.203,-262.699"/>
</g>
<!-- 10&#45;&gt;4 -->
<g id="edge10" class="edge"><title>10&#45;&gt;4</title>
<path fill="none" stroke="grey" stroke-width="2" d="M335.978,-215.697C325.874,-206.965 313.464,-196.24 302.482,-186.75"/>
<polygon fill="grey" stroke="grey" stroke-width="2" points="304.647,-183.995 294.792,-180.104 300.07,-189.291 304.647,-183.995"/>
</g>
<!-- 11 -->
<g id="node12" class="node"><title>11</title>
<path fill="none" stroke="#68d856" stroke-width="2" d="M94.2095,-828C94.2095,-828 35.7905,-828 35.7905,-828 29.7905,-828 23.7905,-822 23.7905,-816 23.7905,-816 23.7905,-804 23.7905,-804 23.7905,-798 29.7905,-792 35.7905,-792 35.7905,-792 94.2095,-792 94.2095,-792 100.209,-792 106.209,-798 106.209,-804 106.209,-804 106.209,-816 106.209,-816 106.209,-822 100.209,-828 94.2095,-828"/>
<text text-anchor="middle" x="65" y="-812" font-family="sans" font-size="10.00">minimap2</text>
<text text-anchor="middle" x="65" y="-802" font-family="sans" font-size="10.00">barcode: BC01</text>
</g>
<!-- 11&#45;&gt;5 -->
<g id="edge11" class="edge"><title>11&#45;&gt;5</title>
<path fill="none" stroke="grey" stroke-width="2" d="M65,-791.697C65,-783.983 65,-774.712 65,-766.112"/>
<polygon fill="grey" stroke="grey" stroke-width="2" points="68.5001,-766.104 65,-756.104 61.5001,-766.104 68.5001,-766.104"/>
</g>
<!-- 12 -->
<g id="node13" class="node"><title>12</title>
<path fill="none" stroke="#56d88a" stroke-width="2" d="M162.974,-396C162.974,-396 121.026,-396 121.026,-396 115.026,-396 109.026,-390 109.026,-384 109.026,-384 109.026,-372 109.026,-372 109.026,-366 115.026,-360 121.026,-360 121.026,-360 162.974,-360 162.974,-360 168.974,-360 174.974,-366 174.974,-372 174.974,-372 174.974,-384 174.974,-384 174.974,-390 168.974,-396 162.974,-396"/>
<text text-anchor="middle" x="142" y="-375" font-family="sans" font-size="10.00">index_calls</text>
</g>
<!-- 12&#45;&gt;6 -->
<g id="edge13" class="edge"><title>12&#45;&gt;6</title>
<path fill="none" stroke="grey" stroke-width="2" d="M126.921,-359.697C119.608,-351.305 110.69,-341.07 102.665,-331.861"/>
<polygon fill="grey" stroke="grey" stroke-width="2" points="105.114,-329.344 95.9052,-324.104 99.8363,-333.943 105.114,-329.344"/>
</g>
<!-- 13&#45;&gt;6 -->
<g id="edge14" class="edge"><title>13&#45;&gt;6</title>
<path fill="none" stroke="grey" stroke-width="2" d="M124.964,-431.763C116.252,-422.016 106.204,-409.17 100,-396 90.7697,-376.405 85.9765,-352.273 83.5153,-334.083"/>
<polygon fill="grey" stroke="grey" stroke-width="2" points="86.9885,-333.65 82.3197,-324.139 80.0385,-334.486 86.9885,-333.65"/>
</g>
<!-- 13&#45;&gt;12 -->
<g id="edge23" class="edge"><title>13&#45;&gt;12</title>
<path fill="none" stroke="grey" stroke-width="2" d="M142,-431.697C142,-423.983 142,-414.712 142,-406.112"/>
<polygon fill="grey" stroke="grey" stroke-width="2" points="145.5,-406.104 142,-396.104 138.5,-406.104 145.5,-406.104"/>
</g>
<!-- 14 -->
<g id="node15" class="node"><title>14</title>
<path fill="none" stroke="#68d856" stroke-width="2" d="M195.209,-828C195.209,-828 136.791,-828 136.791,-828 130.791,-828 124.791,-822 124.791,-816 124.791,-816 124.791,-804 124.791,-804 124.791,-798 130.791,-792 136.791,-792 136.791,-792 195.209,-792 195.209,-792 201.209,-792 207.209,-798 207.209,-804 207.209,-804 207.209,-816 207.209,-816 207.209,-822 201.209,-828 195.209,-828"/>
<text text-anchor="middle" x="166" y="-812" font-family="sans" font-size="10.00">minimap2</text>
<text text-anchor="middle" x="166" y="-802" font-family="sans" font-size="10.00">barcode: BC02</text>
</g>
<!-- 14&#45;&gt;8 -->
<g id="edge16" class="edge"><title>14&#45;&gt;8</title>
<path fill="none" stroke="grey" stroke-width="2" d="M199.759,-791.876C218.22,-782.512 241.282,-770.814 261.017,-760.803"/>
<polygon fill="grey" stroke="grey" stroke-width="2" points="262.777,-763.835 270.112,-756.19 259.61,-757.592 262.777,-763.835"/>
</g>
<!-- 15 -->
<g id="node16" class="node"><title>15</title>
<path fill="none" stroke="#56d88a" stroke-width="2" d="M413.974,-396C413.974,-396 372.026,-396 372.026,-396 366.026,-396 360.026,-390 360.026,-384 360.026,-384 360.026,-372 360.026,-372 360.026,-366 366.026,-360 372.026,-360 372.026,-360 413.974,-360 413.974,-360 419.974,-360 425.974,-366 425.974,-372 425.974,-372 425.974,-384 425.974,-384 425.974,-390 419.974,-396 413.974,-396"/>
<text text-anchor="middle" x="393" y="-375" font-family="sans" font-size="10.00">index_calls</text>
</g>
<!-- 15&#45;&gt;9 -->
<g id="edge18" class="edge"><title>15&#45;&gt;9</title>
<path fill="none" stroke="grey" stroke-width="2" d="M377.921,-359.697C370.608,-351.305 361.69,-341.07 353.665,-331.861"/>
<polygon fill="grey" stroke="grey" stroke-width="2" points="356.114,-329.344 346.905,-324.104 350.836,-333.943 356.114,-329.344"/>
</g>
<!-- 16&#45;&gt;9 -->
<g id="edge19" class="edge"><title>16&#45;&gt;9</title>
<path fill="none" stroke="grey" stroke-width="2" d="M363.069,-431.525C359.175,-421.284 354.425,-408.034 351,-396 345.198,-375.613 340.259,-352.152 336.872,-334.438"/>
<polygon fill="grey" stroke="grey" stroke-width="2" points="340.243,-333.419 334.97,-324.229 333.361,-334.701 340.243,-333.419"/>
</g>
<!-- 16&#45;&gt;15 -->
<g id="edge29" class="edge"><title>16&#45;&gt;15</title>
<path fill="none" stroke="grey" stroke-width="2" d="M375.685,-431.697C378.248,-423.898 381.333,-414.509 384.185,-405.829"/>
<polygon fill="grey" stroke="grey" stroke-width="2" points="387.584,-406.697 387.38,-396.104 380.933,-404.512 387.584,-406.697"/>
</g>
<!-- 17 -->
<g id="node18" class="node"><title>17</title>
<path fill="none" stroke="#567bd8" stroke-width="2" d="M252.544,-900C252.544,-900 185.456,-900 185.456,-900 179.456,-900 173.456,-894 173.456,-888 173.456,-888 173.456,-876 173.456,-876 173.456,-870 179.456,-864 185.456,-864 185.456,-864 252.544,-864 252.544,-864 258.544,-864 264.544,-870 264.544,-876 264.544,-876 264.544,-888 264.544,-888 264.544,-894 258.544,-900 252.544,-900"/>
<text text-anchor="middle" x="219" y="-879" font-family="sans" font-size="10.00">demultiplex_qcat</text>
</g>
<!-- 17&#45;&gt;11 -->
<g id="edge21" class="edge"><title>17&#45;&gt;11</title>
<path fill="none" stroke="grey" stroke-width="2" d="M181.327,-863.876C160.368,-854.349 134.095,-842.407 111.823,-832.283"/>
<polygon fill="grey" stroke="grey" stroke-width="2" points="113.102,-829.02 102.55,-828.068 110.206,-835.393 113.102,-829.02"/>
</g>
<!-- 17&#45;&gt;14 -->
<g id="edge27" class="edge"><title>17&#45;&gt;14</title>
<path fill="none" stroke="grey" stroke-width="2" d="M205.899,-863.697C199.609,-855.389 191.953,-845.277 185.035,-836.141"/>
<polygon fill="grey" stroke="grey" stroke-width="2" points="187.777,-833.964 178.95,-828.104 182.196,-838.19 187.777,-833.964"/>
</g>
<!-- 17&#45;&gt;24 -->
<g id="edge38" class="edge"><title>17&#45;&gt;24</title>
<path fill="none" stroke="grey" stroke-width="2" d="M220.167,-863.727C220.983,-845.64 221.15,-816.51 216,-792 208.533,-756.46 191.711,-718.015 179.641,-693.283"/>
<polygon fill="grey" stroke="grey" stroke-width="2" points="182.708,-691.59 175.119,-684.197 176.442,-694.709 182.708,-691.59"/>
</g>
<!-- 17&#45;&gt;25 -->
<g id="edge40" class="edge"><title>17&#45;&gt;25</title>
<path fill="none" stroke="grey" stroke-width="2" d="M239.924,-863.999C267.592,-841.008 317.145,-798.028 354,-756 371.591,-735.94 388.908,-710.992 400.921,-692.619"/>
<polygon fill="grey" stroke="grey" stroke-width="2" points="403.887,-694.477 406.37,-684.177 398.006,-690.681 403.887,-694.477"/>
</g>
<!-- 18 -->
<g id="node19" class="node"><title>18</title>
<path fill="none" stroke="#56d8d0" stroke-width="2" d="M112.318,-900C112.318,-900 47.6824,-900 47.6824,-900 41.6824,-900 35.6824,-894 35.6824,-888 35.6824,-888 35.6824,-876 35.6824,-876 35.6824,-870 41.6824,-864 47.6824,-864 47.6824,-864 112.318,-864 112.318,-864 118.318,-864 124.318,-870 124.318,-876 124.318,-876 124.318,-888 124.318,-888 124.318,-894 118.318,-900 112.318,-900"/>
<text text-anchor="middle" x="80" y="-879" font-family="sans" font-size="10.00">minimap2_index</text>
</g>
<!-- 18&#45;&gt;11 -->
<g id="edge22" class="edge"><title>18&#45;&gt;11</title>
<path fill="none" stroke="grey" stroke-width="2" d="M76.2921,-863.697C74.6392,-855.983 72.6527,-846.712 70.8098,-838.112"/>
<polygon fill="grey" stroke="grey" stroke-width="2" points="74.1829,-837.149 68.6652,-828.104 67.3383,-838.616 74.1829,-837.149"/>
</g>
<!-- 18&#45;&gt;14 -->
<g id="edge28" class="edge"><title>18&#45;&gt;14</title>
<path fill="none" stroke="grey" stroke-width="2" d="M101.258,-863.697C112.089,-854.881 125.418,-844.032 137.16,-834.474"/>
<polygon fill="grey" stroke="grey" stroke-width="2" points="139.44,-837.132 144.986,-828.104 135.021,-831.703 139.44,-837.132"/>
</g>
<!-- 19 -->
<g id="node20" class="node"><title>19</title>
<path fill="none" stroke="#56d86b" stroke-width="2" d="M193.246,-612C193.246,-612 138.754,-612 138.754,-612 132.754,-612 126.754,-606 126.754,-600 126.754,-600 126.754,-588 126.754,-588 126.754,-582 132.754,-576 138.754,-576 138.754,-576 193.246,-576 193.246,-576 199.246,-576 205.246,-582 205.246,-588 205.246,-588 205.246,-600 205.246,-600 205.246,-606 199.246,-612 193.246,-612"/>
<text text-anchor="middle" x="166" y="-591" font-family="sans" font-size="10.00">samtools_sort</text>
</g>
<!-- 19&#45;&gt;13 -->
<g id="edge25" class="edge"><title>19&#45;&gt;13</title>
<path fill="none" stroke="grey" stroke-width="2" d="M180.393,-575.713C193.616,-557.614 209.663,-528.475 199,-504 194.067,-492.677 185.389,-482.682 176.271,-474.512"/>
<polygon fill="grey" stroke="grey" stroke-width="2" points="178.499,-471.812 168.58,-468.088 174.011,-477.185 178.499,-471.812"/>
</g>
<!-- 20 -->
<g id="node21" class="node"><title>20</title>
<path fill="none" stroke="#56c1d8" stroke-width="2" d="M177.984,-540C177.984,-540 116.016,-540 116.016,-540 110.016,-540 104.016,-534 104.016,-528 104.016,-528 104.016,-516 104.016,-516 104.016,-510 110.016,-504 116.016,-504 116.016,-504 177.984,-504 177.984,-504 183.984,-504 189.984,-510 189.984,-516 189.984,-516 189.984,-528 189.984,-528 189.984,-534 183.984,-540 177.984,-540"/>
<text text-anchor="middle" x="147" y="-519" font-family="sans" font-size="10.00">samtools_index</text>
</g>
<!-- 19&#45;&gt;20 -->
<g id="edge35" class="edge"><title>19&#45;&gt;20</title>
<path fill="none" stroke="grey" stroke-width="2" d="M161.303,-575.697C159.187,-567.898 156.638,-558.509 154.282,-549.829"/>
<polygon fill="grey" stroke="grey" stroke-width="2" points="157.64,-548.838 151.643,-540.104 150.884,-550.672 157.64,-548.838"/>
</g>
<!-- 20&#45;&gt;13 -->
<g id="edge26" class="edge"><title>20&#45;&gt;13</title>
<path fill="none" stroke="grey" stroke-width="2" d="M145.764,-503.697C145.213,-495.983 144.551,-486.712 143.937,-478.112"/>
<polygon fill="grey" stroke="grey" stroke-width="2" points="147.425,-477.83 143.222,-468.104 140.443,-478.328 147.425,-477.83"/>
</g>
<!-- 21 -->
<g id="node22" class="node"><title>21</title>
<path fill="none" stroke="#56d86b" stroke-width="2" d="M444.246,-612C444.246,-612 389.754,-612 389.754,-612 383.754,-612 377.754,-606 377.754,-600 377.754,-600 377.754,-588 377.754,-588 377.754,-582 383.754,-576 389.754,-576 389.754,-576 444.246,-576 444.246,-576 450.246,-576 456.246,-582 456.246,-588 456.246,-588 456.246,-600 456.246,-600 456.246,-606 450.246,-612 444.246,-612"/>
<text text-anchor="middle" x="417" y="-591" font-family="sans" font-size="10.00">samtools_sort</text>
</g>
<!-- 21&#45;&gt;16 -->
<g id="edge31" class="edge"><title>21&#45;&gt;16</title>
<path fill="none" stroke="grey" stroke-width="2" d="M406.409,-575.891C400.545,-565.771 393.545,-552.521 389,-540 381.689,-519.858 376.792,-496.079 373.803,-478.169"/>
<polygon fill="grey" stroke="grey" stroke-width="2" points="377.233,-477.453 372.222,-468.119 370.318,-478.541 377.233,-477.453"/>
</g>
<!-- 22 -->
<g id="node23" class="node"><title>22</title>
<path fill="none" stroke="#56c1d8" stroke-width="2" d="M471.984,-540C471.984,-540 410.016,-540 410.016,-540 404.016,-540 398.016,-534 398.016,-528 398.016,-528 398.016,-516 398.016,-516 398.016,-510 404.016,-504 410.016,-504 410.016,-504 471.984,-504 471.984,-504 477.984,-504 483.984,-510 483.984,-516 483.984,-516 483.984,-528 483.984,-528 483.984,-534 477.984,-540 471.984,-540"/>
<text text-anchor="middle" x="441" y="-519" font-family="sans" font-size="10.00">samtools_index</text>
</g>
<!-- 21&#45;&gt;22 -->
<g id="edge37" class="edge"><title>21&#45;&gt;22</title>
<path fill="none" stroke="grey" stroke-width="2" d="M422.933,-575.697C425.606,-567.898 428.826,-558.509 431.801,-549.829"/>
<polygon fill="grey" stroke="grey" stroke-width="2" points="435.203,-550.699 435.136,-540.104 428.582,-548.429 435.203,-550.699"/>
</g>
<!-- 22&#45;&gt;16 -->
<g id="edge32" class="edge"><title>22&#45;&gt;16</title>
<path fill="none" stroke="grey" stroke-width="2" d="M423.449,-503.697C414.766,-495.135 404.137,-484.656 394.652,-475.304"/>
<polygon fill="grey" stroke="grey" stroke-width="2" points="396.927,-472.633 387.349,-468.104 392.012,-477.617 396.927,-472.633"/>
</g>
<!-- 23 -->
<g id="node24" class="node"><title>23</title>
<path fill="none" stroke="#569ad8" stroke-width="2" d="M275.734,-972C275.734,-972 162.266,-972 162.266,-972 156.266,-972 150.266,-966 150.266,-960 150.266,-960 150.266,-948 150.266,-948 150.266,-942 156.266,-936 162.266,-936 162.266,-936 275.734,-936 275.734,-936 281.734,-936 287.734,-942 287.734,-948 287.734,-948 287.734,-960 287.734,-960 287.734,-966 281.734,-972 275.734,-972"/>
<text text-anchor="middle" x="219" y="-956" font-family="sans" font-size="10.00">gather</text>
<text text-anchor="middle" x="219" y="-946" font-family="sans" font-size="10.00">run_name: noro_GOSH_2k</text>
</g>
<!-- 23&#45;&gt;17 -->
<g id="edge33" class="edge"><title>23&#45;&gt;17</title>
<path fill="none" stroke="grey" stroke-width="2" d="M219,-935.697C219,-927.983 219,-918.712 219,-910.112"/>
<polygon fill="grey" stroke="grey" stroke-width="2" points="222.5,-910.104 219,-900.104 215.5,-910.104 222.5,-910.104"/>
</g>
<!-- 24&#45;&gt;19 -->
<g id="edge34" class="edge"><title>24&#45;&gt;19</title>
<path fill="none" stroke="grey" stroke-width="2" d="M166,-647.697C166,-639.983 166,-630.712 166,-622.112"/>
<polygon fill="grey" stroke="grey" stroke-width="2" points="169.5,-622.104 166,-612.104 162.5,-622.104 169.5,-622.104"/>
</g>
<!-- 25&#45;&gt;21 -->
<g id="edge36" class="edge"><title>25&#45;&gt;21</title>
<path fill="none" stroke="grey" stroke-width="2" d="M417,-647.697C417,-639.983 417,-630.712 417,-622.112"/>
<polygon fill="grey" stroke="grey" stroke-width="2" points="420.5,-622.104 417,-612.104 413.5,-622.104 420.5,-622.104"/>
</g>
</g>
</svg>
