<?xml version="1.0" encoding="UTF-8" standalone="no"?>
<!DOCTYPE svg PUBLIC "-//W3C//DTD SVG 1.1//EN"
 "http://www.w3.org/Graphics/SVG/1.1/DTD/svg11.dtd">
<!-- Generated by graphviz version 2.40.1 (20161225.0304)
 -->
<!-- Title: snakemake_dag Pages: 1 -->
<svg width="695pt" height="620pt"
 viewBox="0.00 0.00 694.74 620.00" xmlns="http://www.w3.org/2000/svg" xmlns:xlink="http://www.w3.org/1999/xlink">
<g id="graph0" class="graph" transform="scale(1 1) rotate(0) translate(4 616)">
<title>snakemake_dag</title>
<polygon fill="#ffffff" stroke="transparent" points="-4,4 -4,-616 690.7432,-616 690.7432,4 -4,4"/>
<!-- 0 -->
<g id="node1" class="node">
<title>0</title>
<path fill="none" stroke="#d89c56" stroke-width="2" d="M358.3716,-36C358.3716,-36 328.3716,-36 328.3716,-36 322.3716,-36 316.3716,-30 316.3716,-24 316.3716,-24 316.3716,-12 316.3716,-12 316.3716,-6 322.3716,0 328.3716,0 328.3716,0 358.3716,0 358.3716,0 364.3716,0 370.3716,-6 370.3716,-12 370.3716,-12 370.3716,-24 370.3716,-24 370.3716,-30 364.3716,-36 358.3716,-36"/>
<text text-anchor="middle" x="343.3716" y="-15" font-family="sans" font-size="10.00" fill="#000000">all</text>
</g>
<!-- 1 -->
<g id="node2" class="node">
<title>1</title>
<path fill="none" stroke="#d8cb56" stroke-width="2" d="M380.0485,-108C380.0485,-108 306.6947,-108 306.6947,-108 300.6947,-108 294.6947,-102 294.6947,-96 294.6947,-96 294.6947,-84 294.6947,-84 294.6947,-78 300.6947,-72 306.6947,-72 306.6947,-72 380.0485,-72 380.0485,-72 386.0485,-72 392.0485,-78 392.0485,-84 392.0485,-84 392.0485,-96 392.0485,-96 392.0485,-102 386.0485,-108 380.0485,-108"/>
<text text-anchor="middle" x="343.3716" y="-87" font-family="sans" font-size="10.00" fill="#000000">generate_genome</text>
</g>
<!-- 1&#45;&gt;0 -->
<g id="edge1" class="edge">
<title>1&#45;&gt;0</title>
<path fill="none" stroke="#c0c0c0" stroke-width="2" d="M343.3716,-71.8314C343.3716,-64.131 343.3716,-54.9743 343.3716,-46.4166"/>
<polygon fill="#c0c0c0" stroke="#c0c0c0" stroke-width="2" points="346.8717,-46.4132 343.3716,-36.4133 339.8717,-46.4133 346.8717,-46.4132"/>
</g>
<!-- 2 -->
<g id="node3" class="node">
<title>2</title>
<path fill="none" stroke="#56c9d8" stroke-width="2" d="M392.615,-180C392.615,-180 294.1281,-180 294.1281,-180 288.1281,-180 282.1281,-174 282.1281,-168 282.1281,-168 282.1281,-156 282.1281,-156 282.1281,-150 288.1281,-144 294.1281,-144 294.1281,-144 392.615,-144 392.615,-144 398.615,-144 404.615,-150 404.615,-156 404.615,-156 404.615,-168 404.615,-168 404.615,-174 398.615,-180 392.615,-180"/>
<text text-anchor="middle" x="343.3716" y="-159" font-family="sans" font-size="10.00" fill="#000000">organise_minion_output</text>
</g>
<!-- 2&#45;&gt;1 -->
<g id="edge2" class="edge">
<title>2&#45;&gt;1</title>
<path fill="none" stroke="#c0c0c0" stroke-width="2" d="M343.3716,-143.8314C343.3716,-136.131 343.3716,-126.9743 343.3716,-118.4166"/>
<polygon fill="#c0c0c0" stroke="#c0c0c0" stroke-width="2" points="346.8717,-118.4132 343.3716,-108.4133 339.8717,-118.4133 346.8717,-118.4132"/>
</g>
<!-- 3 -->
<g id="node4" class="node">
<title>3</title>
<path fill="none" stroke="#56c9d8" stroke-width="2" d="M674.615,-180C674.615,-180 576.1281,-180 576.1281,-180 570.1281,-180 564.1281,-174 564.1281,-168 564.1281,-168 564.1281,-156 564.1281,-156 564.1281,-150 570.1281,-144 576.1281,-144 576.1281,-144 674.615,-144 674.615,-144 680.615,-144 686.615,-150 686.615,-156 686.615,-156 686.615,-168 686.615,-168 686.615,-174 680.615,-180 674.615,-180"/>
<text text-anchor="middle" x="625.3716" y="-159" font-family="sans" font-size="10.00" fill="#000000">organise_minion_output</text>
</g>
<!-- 3&#45;&gt;1 -->
<g id="edge3" class="edge">
<title>3&#45;&gt;1</title>
<path fill="none" stroke="#c0c0c0" stroke-width="2" d="M563.834,-146.2883C515.7207,-134.004 449.2793,-117.0403 401.9418,-104.9541"/>
<polygon fill="#c0c0c0" stroke="#c0c0c0" stroke-width="2" points="402.699,-101.5352 392.1439,-102.4525 400.9672,-108.3176 402.699,-101.5352"/>
</g>
<!-- 4 -->
<g id="node5" class="node">
<title>4</title>
<path fill="none" stroke="#56c9d8" stroke-width="2" d="M533.615,-180C533.615,-180 435.1281,-180 435.1281,-180 429.1281,-180 423.1281,-174 423.1281,-168 423.1281,-168 423.1281,-156 423.1281,-156 423.1281,-150 429.1281,-144 435.1281,-144 435.1281,-144 533.615,-144 533.615,-144 539.615,-144 545.615,-150 545.615,-156 545.615,-156 545.615,-168 545.615,-168 545.615,-174 539.615,-180 533.615,-180"/>
<text text-anchor="middle" x="484.3716" y="-159" font-family="sans" font-size="10.00" fill="#000000">organise_minion_output</text>
</g>
<!-- 4&#45;&gt;1 -->
<g id="edge4" class="edge">
<title>4&#45;&gt;1</title>
<path fill="none" stroke="#c0c0c0" stroke-width="2" d="M448.7913,-143.8314C430.3391,-134.4089 407.6171,-122.8062 387.9986,-112.7883"/>
<polygon fill="#c0c0c0" stroke="#c0c0c0" stroke-width="2" points="389.4383,-109.5935 378.9405,-108.1628 386.2548,-115.8278 389.4383,-109.5935"/>
</g>
<!-- 5 -->
<g id="node6" class="node">
<title>5</title>
<path fill="none" stroke="#56c9d8" stroke-width="2" d="M110.615,-180C110.615,-180 12.1281,-180 12.1281,-180 6.1281,-180 .1281,-174 .1281,-168 .1281,-168 .1281,-156 .1281,-156 .1281,-150 6.1281,-144 12.1281,-144 12.1281,-144 110.615,-144 110.615,-144 116.615,-144 122.615,-150 122.615,-156 122.615,-156 122.615,-168 122.615,-168 122.615,-174 116.615,-180 110.615,-180"/>
<text text-anchor="middle" x="61.3716" y="-159" font-family="sans" font-size="10.00" fill="#000000">organise_minion_output</text>
</g>
<!-- 5&#45;&gt;1 -->
<g id="edge5" class="edge">
<title>5&#45;&gt;1</title>
<path fill="none" stroke="#c0c0c0" stroke-width="2" d="M122.9092,-146.2883C171.0225,-134.004 237.4639,-117.0403 284.8014,-104.9541"/>
<polygon fill="#c0c0c0" stroke="#c0c0c0" stroke-width="2" points="285.7759,-108.3176 294.5992,-102.4525 284.0442,-101.5352 285.7759,-108.3176"/>
</g>
<!-- 6 -->
<g id="node7" class="node">
<title>6</title>
<path fill="none" stroke="#56c9d8" stroke-width="2" d="M251.615,-180C251.615,-180 153.1281,-180 153.1281,-180 147.1281,-180 141.1281,-174 141.1281,-168 141.1281,-168 141.1281,-156 141.1281,-156 141.1281,-150 147.1281,-144 153.1281,-144 153.1281,-144 251.615,-144 251.615,-144 257.615,-144 263.615,-150 263.615,-156 263.615,-156 263.615,-168 263.615,-168 263.615,-174 257.615,-180 251.615,-180"/>
<text text-anchor="middle" x="202.3716" y="-159" font-family="sans" font-size="10.00" fill="#000000">organise_minion_output</text>
</g>
<!-- 6&#45;&gt;1 -->
<g id="edge6" class="edge">
<title>6&#45;&gt;1</title>
<path fill="none" stroke="#c0c0c0" stroke-width="2" d="M237.9518,-143.8314C256.4041,-134.4089 279.1261,-122.8062 298.7445,-112.7883"/>
<polygon fill="#c0c0c0" stroke="#c0c0c0" stroke-width="2" points="300.4884,-115.8278 307.8027,-108.1628 297.3049,-109.5935 300.4884,-115.8278"/>
</g>
<!-- 7 -->
<g id="node8" class="node">
<title>7</title>
<path fill="none" stroke="#d88556" stroke-width="2" d="M375.0241,-252C375.0241,-252 311.7191,-252 311.7191,-252 305.7191,-252 299.7191,-246 299.7191,-240 299.7191,-240 299.7191,-228 299.7191,-228 299.7191,-222 305.7191,-216 311.7191,-216 311.7191,-216 375.0241,-216 375.0241,-216 381.0241,-216 387.0241,-222 387.0241,-228 387.0241,-228 387.0241,-240 387.0241,-240 387.0241,-246 381.0241,-252 375.0241,-252"/>
<text text-anchor="middle" x="343.3716" y="-236" font-family="sans" font-size="10.00" fill="#000000">artic_minion</text>
<text text-anchor="middle" x="343.3716" y="-226" font-family="sans" font-size="10.00" fill="#000000">amplicon: Amp1</text>
</g>
<!-- 7&#45;&gt;2 -->
<g id="edge7" class="edge">
<title>7&#45;&gt;2</title>
<path fill="none" stroke="#c0c0c0" stroke-width="2" d="M343.3716,-215.8314C343.3716,-208.131 343.3716,-198.9743 343.3716,-190.4166"/>
<polygon fill="#c0c0c0" stroke="#c0c0c0" stroke-width="2" points="346.8717,-190.4132 343.3716,-180.4133 339.8717,-190.4133 346.8717,-190.4132"/>
</g>
<!-- 8 -->
<g id="node9" class="node">
<title>8</title>
<path fill="none" stroke="#d88556" stroke-width="2" d="M609.0241,-252C609.0241,-252 545.7191,-252 545.7191,-252 539.7191,-252 533.7191,-246 533.7191,-240 533.7191,-240 533.7191,-228 533.7191,-228 533.7191,-222 539.7191,-216 545.7191,-216 545.7191,-216 609.0241,-216 609.0241,-216 615.0241,-216 621.0241,-222 621.0241,-228 621.0241,-228 621.0241,-240 621.0241,-240 621.0241,-246 615.0241,-252 609.0241,-252"/>
<text text-anchor="middle" x="577.3716" y="-236" font-family="sans" font-size="10.00" fill="#000000">artic_minion</text>
<text text-anchor="middle" x="577.3716" y="-226" font-family="sans" font-size="10.00" fill="#000000">amplicon: Amp2</text>
</g>
<!-- 8&#45;&gt;3 -->
<g id="edge8" class="edge">
<title>8&#45;&gt;3</title>
<path fill="none" stroke="#c0c0c0" stroke-width="2" d="M589.484,-215.8314C594.8997,-207.7079 601.3958,-197.9637 607.3637,-189.0118"/>
<polygon fill="#c0c0c0" stroke="#c0c0c0" stroke-width="2" points="610.4612,-190.6753 613.0961,-180.4133 604.6368,-186.7923 610.4612,-190.6753"/>
</g>
<!-- 9 -->
<g id="node10" class="node">
<title>9</title>
<path fill="none" stroke="#d88556" stroke-width="2" d="M488.0241,-252C488.0241,-252 424.7191,-252 424.7191,-252 418.7191,-252 412.7191,-246 412.7191,-240 412.7191,-240 412.7191,-228 412.7191,-228 412.7191,-222 418.7191,-216 424.7191,-216 424.7191,-216 488.0241,-216 488.0241,-216 494.0241,-216 500.0241,-222 500.0241,-228 500.0241,-228 500.0241,-240 500.0241,-240 500.0241,-246 494.0241,-252 488.0241,-252"/>
<text text-anchor="middle" x="456.3716" y="-236" font-family="sans" font-size="10.00" fill="#000000">artic_minion</text>
<text text-anchor="middle" x="456.3716" y="-226" font-family="sans" font-size="10.00" fill="#000000">amplicon: Amp3</text>
</g>
<!-- 9&#45;&gt;4 -->
<g id="edge9" class="edge">
<title>9&#45;&gt;4</title>
<path fill="none" stroke="#c0c0c0" stroke-width="2" d="M463.4372,-215.8314C466.4976,-207.9617 470.1495,-198.5712 473.5398,-189.8533"/>
<polygon fill="#c0c0c0" stroke="#c0c0c0" stroke-width="2" points="476.8484,-191.0019 477.2109,-180.4133 470.3243,-188.4647 476.8484,-191.0019"/>
</g>
<!-- 10 -->
<g id="node11" class="node">
<title>10</title>
<path fill="none" stroke="#d88556" stroke-width="2" d="M115.0241,-252C115.0241,-252 51.7191,-252 51.7191,-252 45.7191,-252 39.7191,-246 39.7191,-240 39.7191,-240 39.7191,-228 39.7191,-228 39.7191,-222 45.7191,-216 51.7191,-216 51.7191,-216 115.0241,-216 115.0241,-216 121.0241,-216 127.0241,-222 127.0241,-228 127.0241,-228 127.0241,-240 127.0241,-240 127.0241,-246 121.0241,-252 115.0241,-252"/>
<text text-anchor="middle" x="83.3716" y="-236" font-family="sans" font-size="10.00" fill="#000000">artic_minion</text>
<text text-anchor="middle" x="83.3716" y="-226" font-family="sans" font-size="10.00" fill="#000000">amplicon: Amp4</text>
</g>
<!-- 10&#45;&gt;5 -->
<g id="edge10" class="edge">
<title>10&#45;&gt;5</title>
<path fill="none" stroke="#c0c0c0" stroke-width="2" d="M77.8201,-215.8314C75.4413,-208.0463 72.6078,-198.7729 69.9683,-190.1347"/>
<polygon fill="#c0c0c0" stroke="#c0c0c0" stroke-width="2" points="73.2673,-188.954 66.9979,-180.4133 66.5729,-190.9996 73.2673,-188.954"/>
</g>
<!-- 11 -->
<g id="node12" class="node">
<title>11</title>
<path fill="none" stroke="#d88556" stroke-width="2" d="M246.0241,-252C246.0241,-252 182.7191,-252 182.7191,-252 176.7191,-252 170.7191,-246 170.7191,-240 170.7191,-240 170.7191,-228 170.7191,-228 170.7191,-222 176.7191,-216 182.7191,-216 182.7191,-216 246.0241,-216 246.0241,-216 252.0241,-216 258.0241,-222 258.0241,-228 258.0241,-228 258.0241,-240 258.0241,-240 258.0241,-246 252.0241,-252 246.0241,-252"/>
<text text-anchor="middle" x="214.3716" y="-236" font-family="sans" font-size="10.00" fill="#000000">artic_minion</text>
<text text-anchor="middle" x="214.3716" y="-226" font-family="sans" font-size="10.00" fill="#000000">amplicon: Amp5</text>
</g>
<!-- 11&#45;&gt;6 -->
<g id="edge11" class="edge">
<title>11&#45;&gt;6</title>
<path fill="none" stroke="#c0c0c0" stroke-width="2" d="M211.3435,-215.8314C210.0601,-208.131 208.534,-198.9743 207.1077,-190.4166"/>
<polygon fill="#c0c0c0" stroke="#c0c0c0" stroke-width="2" points="210.5369,-189.7018 205.4405,-180.4133 203.6322,-190.8526 210.5369,-189.7018"/>
</g>
<!-- 12 -->
<g id="node13" class="node">
<title>12</title>
<path fill="none" stroke="#d8b456" stroke-width="2" stroke-dasharray="5,2" d="M358.3716,-324C358.3716,-324 328.3716,-324 328.3716,-324 322.3716,-324 316.3716,-318 316.3716,-312 316.3716,-312 316.3716,-300 316.3716,-300 316.3716,-294 322.3716,-288 328.3716,-288 328.3716,-288 358.3716,-288 358.3716,-288 364.3716,-288 370.3716,-294 370.3716,-300 370.3716,-300 370.3716,-312 370.3716,-312 370.3716,-318 364.3716,-324 358.3716,-324"/>
<text text-anchor="middle" x="343.3716" y="-303" font-family="sans" font-size="10.00" fill="#000000">bin</text>
</g>
<!-- 12&#45;&gt;7 -->
<g id="edge12" class="edge">
<title>12&#45;&gt;7</title>
<path fill="none" stroke="#c0c0c0" stroke-width="2" d="M343.3716,-287.8314C343.3716,-280.131 343.3716,-270.9743 343.3716,-262.4166"/>
<polygon fill="#c0c0c0" stroke="#c0c0c0" stroke-width="2" points="346.8717,-262.4132 343.3716,-252.4133 339.8717,-262.4133 346.8717,-262.4132"/>
</g>
<!-- 12&#45;&gt;8 -->
<g id="edge15" class="edge">
<title>12&#45;&gt;8</title>
<path fill="none" stroke="#c0c0c0" stroke-width="2" d="M370.6723,-297.5998C408.1184,-286.0779 476.2004,-265.1296 523.9673,-250.4321"/>
<polygon fill="#c0c0c0" stroke="#c0c0c0" stroke-width="2" points="525.0054,-253.7747 533.5339,-247.4885 522.9468,-247.0842 525.0054,-253.7747"/>
</g>
<!-- 12&#45;&gt;9 -->
<g id="edge18" class="edge">
<title>12&#45;&gt;9</title>
<path fill="none" stroke="#c0c0c0" stroke-width="2" d="M370.4379,-288.7542C385.0921,-279.417 403.4114,-267.7445 419.3667,-257.5783"/>
<polygon fill="#c0c0c0" stroke="#c0c0c0" stroke-width="2" points="421.3965,-260.4352 427.9492,-252.1098 417.6349,-254.5317 421.3965,-260.4352"/>
</g>
<!-- 12&#45;&gt;10 -->
<g id="edge21" class="edge">
<title>12&#45;&gt;10</title>
<path fill="none" stroke="#c0c0c0" stroke-width="2" d="M316.2382,-297.6861C305.9613,-294.583 294.1444,-291.0696 283.3716,-288 233.9474,-273.917 177.3871,-258.7317 137.055,-248.0621"/>
<polygon fill="#c0c0c0" stroke="#c0c0c0" stroke-width="2" points="137.7272,-244.6197 127.165,-245.4502 135.9398,-251.3876 137.7272,-244.6197"/>
</g>
<!-- 12&#45;&gt;11 -->
<g id="edge24" class="edge">
<title>12&#45;&gt;11</title>
<path fill="none" stroke="#c0c0c0" stroke-width="2" d="M316.329,-290.9064C298.7742,-281.1084 275.5544,-268.1486 255.7085,-257.0718"/>
<polygon fill="#c0c0c0" stroke="#c0c0c0" stroke-width="2" points="257.2977,-253.9506 246.86,-252.133 253.8861,-260.063 257.2977,-253.9506"/>
</g>
<!-- 13 -->
<g id="node14" class="node">
<title>13</title>
<path fill="none" stroke="#59d856" stroke-width="2" stroke-dasharray="5,2" d="M298.1052,-612C298.1052,-612 184.6379,-612 184.6379,-612 178.6379,-612 172.6379,-606 172.6379,-600 172.6379,-600 172.6379,-588 172.6379,-588 172.6379,-582 178.6379,-576 184.6379,-576 184.6379,-576 298.1052,-576 298.1052,-576 304.1052,-576 310.1052,-582 310.1052,-588 310.1052,-588 310.1052,-600 310.1052,-600 310.1052,-606 304.1052,-612 298.1052,-612"/>
<text text-anchor="middle" x="241.3716" y="-596" font-family="sans" font-size="10.00" fill="#000000">gather</text>
<text text-anchor="middle" x="241.3716" y="-586" font-family="sans" font-size="10.00" fill="#000000">run_name: noro_GOSH_2k</text>
</g>
<!-- 13&#45;&gt;7 -->
<g id="edge13" class="edge">
<title>13&#45;&gt;7</title>
<path fill="none" stroke="#c0c0c0" stroke-width="2" d="M310.3192,-584.8142C368.906,-575.7728 447.2351,-560.3688 471.3716,-540 504.5541,-511.9972 509.3716,-493.4193 509.3716,-450 509.3716,-450 509.3716,-450 509.3716,-378 509.3716,-317.0689 444.7651,-276.118 396.1623,-253.9319"/>
<polygon fill="#c0c0c0" stroke="#c0c0c0" stroke-width="2" points="397.5475,-250.7176 386.9861,-249.8758 394.7174,-257.12 397.5475,-250.7176"/>
</g>
<!-- 13&#45;&gt;8 -->
<g id="edge16" class="edge">
<title>13&#45;&gt;8</title>
<path fill="none" stroke="#c0c0c0" stroke-width="2" d="M310.4202,-587.6991C384.5544,-579.8059 496.4115,-564.2908 531.3716,-540 569.6799,-513.3828 585.3716,-496.6476 585.3716,-450 585.3716,-450 585.3716,-450 585.3716,-378 585.3716,-337.8141 582.2272,-291.417 579.8811,-262.3918"/>
<polygon fill="#c0c0c0" stroke="#c0c0c0" stroke-width="2" points="583.3475,-261.8422 579.0292,-252.1674 576.3717,-262.4235 583.3475,-261.8422"/>
</g>
<!-- 13&#45;&gt;9 -->
<g id="edge19" class="edge">
<title>13&#45;&gt;9</title>
<path fill="none" stroke="#c0c0c0" stroke-width="2" d="M310.3364,-586.3453C376.632,-577.8154 470.9727,-562.2353 500.3716,-540 536.3627,-512.7789 547.3716,-495.1259 547.3716,-450 547.3716,-450 547.3716,-450 547.3716,-378 547.3716,-330.4235 511.4348,-285.776 484.728,-259.1645"/>
<polygon fill="#c0c0c0" stroke="#c0c0c0" stroke-width="2" points="487.0981,-256.5876 477.4775,-252.1496 482.2307,-261.6184 487.0981,-256.5876"/>
</g>
<!-- 13&#45;&gt;10 -->
<g id="edge22" class="edge">
<title>13&#45;&gt;10</title>
<path fill="none" stroke="#c0c0c0" stroke-width="2" d="M184.1408,-575.8929C163.3652,-567.3484 140.7509,-555.5461 123.3716,-540 88.6041,-508.8999 69.3716,-496.6476 69.3716,-450 69.3716,-450 69.3716,-450 69.3716,-378 69.3716,-337.6868 74.8743,-291.322 78.98,-262.3387"/>
<polygon fill="#c0c0c0" stroke="#c0c0c0" stroke-width="2" points="82.4889,-262.5313 80.4708,-252.1304 75.5624,-261.5197 82.4889,-262.5313"/>
</g>
<!-- 13&#45;&gt;11 -->
<g id="edge25" class="edge">
<title>13&#45;&gt;11</title>
<path fill="none" stroke="#c0c0c0" stroke-width="2" d="M206.1647,-575.8208C166.4628,-552.5064 107.3716,-508.0547 107.3716,-450 107.3716,-450 107.3716,-450 107.3716,-378 107.3716,-328.2513 149.0257,-284.5243 180.3553,-258.6715"/>
<polygon fill="#c0c0c0" stroke="#c0c0c0" stroke-width="2" points="182.8493,-261.1584 188.4699,-252.1774 178.4754,-255.6931 182.8493,-261.1584"/>
</g>
<!-- 14 -->
<g id="node15" class="node">
<title>14</title>
<path fill="none" stroke="#566bd8" stroke-width="2" stroke-dasharray="5,2" d="M262.2135,-324C262.2135,-324 192.5297,-324 192.5297,-324 186.5297,-324 180.5297,-318 180.5297,-312 180.5297,-312 180.5297,-300 180.5297,-300 180.5297,-294 186.5297,-288 192.5297,-288 192.5297,-288 262.2135,-288 262.2135,-288 268.2135,-288 274.2135,-294 274.2135,-300 274.2135,-300 274.2135,-312 274.2135,-312 274.2135,-318 268.2135,-324 262.2135,-324"/>
<text text-anchor="middle" x="227.3716" y="-303" font-family="sans" font-size="10.00" fill="#000000">nanopolish_index</text>
</g>
<!-- 13&#45;&gt;14 -->
<g id="edge30" class="edge">
<title>13&#45;&gt;14</title>
<path fill="none" stroke="#c0c0c0" stroke-width="2" d="M215.1153,-575.8151C204.0294,-566.5285 192.3258,-554.1902 186.3716,-540 156.7117,-469.3136 191.731,-377.9232 213.1462,-333.1516"/>
<polygon fill="#c0c0c0" stroke="#c0c0c0" stroke-width="2" points="216.3372,-334.594 217.6096,-324.0758 210.0557,-331.5048 216.3372,-334.594"/>
</g>
<!-- 16 -->
<g id="node17" class="node">
<title>16</title>
<path fill="none" stroke="#56d8c9" stroke-width="2" stroke-dasharray="5,2" d="M274.9155,-540C274.9155,-540 207.8276,-540 207.8276,-540 201.8276,-540 195.8276,-534 195.8276,-528 195.8276,-528 195.8276,-516 195.8276,-516 195.8276,-510 201.8276,-504 207.8276,-504 207.8276,-504 274.9155,-504 274.9155,-504 280.9155,-504 286.9155,-510 286.9155,-516 286.9155,-516 286.9155,-528 286.9155,-528 286.9155,-534 280.9155,-540 274.9155,-540"/>
<text text-anchor="middle" x="241.3716" y="-519" font-family="sans" font-size="10.00" fill="#000000">demultiplex_qcat</text>
</g>
<!-- 13&#45;&gt;16 -->
<g id="edge34" class="edge">
<title>13&#45;&gt;16</title>
<path fill="none" stroke="#c0c0c0" stroke-width="2" d="M241.3716,-575.8314C241.3716,-568.131 241.3716,-558.9743 241.3716,-550.4166"/>
<polygon fill="#c0c0c0" stroke="#c0c0c0" stroke-width="2" points="244.8717,-550.4132 241.3716,-540.4133 237.8717,-550.4133 244.8717,-550.4132"/>
</g>
<!-- 14&#45;&gt;7 -->
<g id="edge14" class="edge">
<title>14&#45;&gt;7</title>
<path fill="none" stroke="#c0c0c0" stroke-width="2" d="M256.6433,-287.8314C271.4804,-278.6221 289.6731,-267.3301 305.5578,-257.4706"/>
<polygon fill="#c0c0c0" stroke="#c0c0c0" stroke-width="2" points="307.4586,-260.4102 314.1092,-252.1628 303.767,-254.4628 307.4586,-260.4102"/>
</g>
<!-- 14&#45;&gt;8 -->
<g id="edge17" class="edge">
<title>14&#45;&gt;8</title>
<path fill="none" stroke="#c0c0c0" stroke-width="2" d="M274.2517,-295.0816C285.1067,-292.6565 296.6258,-290.1653 307.3716,-288 396.7671,-269.9865 420.329,-271.6844 509.3716,-252 514.0444,-250.967 518.88,-249.8285 523.7191,-248.6409"/>
<polygon fill="#c0c0c0" stroke="#c0c0c0" stroke-width="2" points="524.7625,-251.9875 533.6058,-246.1526 523.0539,-245.1992 524.7625,-251.9875"/>
</g>
<!-- 14&#45;&gt;9 -->
<g id="edge20" class="edge">
<title>14&#45;&gt;9</title>
<path fill="none" stroke="#c0c0c0" stroke-width="2" d="M274.2657,-291.256C311.6612,-279.4985 364.0459,-263.0282 403.0363,-250.7692"/>
<polygon fill="#c0c0c0" stroke="#c0c0c0" stroke-width="2" points="404.1535,-254.0869 412.6433,-247.7486 402.0539,-247.4092 404.1535,-254.0869"/>
</g>
<!-- 14&#45;&gt;10 -->
<g id="edge23" class="edge">
<title>14&#45;&gt;10</title>
<path fill="none" stroke="#c0c0c0" stroke-width="2" d="M191.0343,-287.8314C172.0319,-278.3302 148.5957,-266.6121 128.4464,-256.5374"/>
<polygon fill="#c0c0c0" stroke="#c0c0c0" stroke-width="2" points="129.9571,-253.3797 119.4476,-252.038 126.8266,-259.6407 129.9571,-253.3797"/>
</g>
<!-- 14&#45;&gt;11 -->
<g id="edge26" class="edge">
<title>14&#45;&gt;11</title>
<path fill="none" stroke="#c0c0c0" stroke-width="2" d="M224.0911,-287.8314C222.7008,-280.131 221.0475,-270.9743 219.5024,-262.4166"/>
<polygon fill="#c0c0c0" stroke="#c0c0c0" stroke-width="2" points="222.9174,-261.6322 217.6962,-252.4133 216.0288,-262.8761 222.9174,-261.6322"/>
</g>
<!-- 15 -->
<g id="node16" class="node">
<title>15</title>
<path fill="none" stroke="#56d86b" stroke-width="2" stroke-dasharray="5,2" d="M358.3716,-396C358.3716,-396 328.3716,-396 328.3716,-396 322.3716,-396 316.3716,-390 316.3716,-384 316.3716,-384 316.3716,-372 316.3716,-372 316.3716,-366 322.3716,-360 328.3716,-360 328.3716,-360 358.3716,-360 358.3716,-360 364.3716,-360 370.3716,-366 370.3716,-372 370.3716,-372 370.3716,-384 370.3716,-384 370.3716,-390 364.3716,-396 358.3716,-396"/>
<text text-anchor="middle" x="343.3716" y="-375" font-family="sans" font-size="10.00" fill="#000000">blastn</text>
</g>
<!-- 15&#45;&gt;12 -->
<g id="edge27" class="edge">
<title>15&#45;&gt;12</title>
<path fill="none" stroke="#c0c0c0" stroke-width="2" d="M343.3716,-359.8314C343.3716,-352.131 343.3716,-342.9743 343.3716,-334.4166"/>
<polygon fill="#c0c0c0" stroke="#c0c0c0" stroke-width="2" points="346.8717,-334.4132 343.3716,-324.4133 339.8717,-334.4133 346.8717,-334.4132"/>
</g>
<!-- 16&#45;&gt;12 -->
<g id="edge28" class="edge">
<title>16&#45;&gt;12</title>
<path fill="none" stroke="#c0c0c0" stroke-width="2" d="M223.6608,-503.6517C215.4774,-493.8946 206.6412,-481.2041 202.3716,-468 197.4489,-452.7761 195.8363,-446.6045 202.3716,-432 223.728,-384.2744 273.0861,-347.1636 307.3379,-325.9323"/>
<polygon fill="#c0c0c0" stroke="#c0c0c0" stroke-width="2" points="309.3764,-328.79 316.1276,-320.6247 305.758,-322.7977 309.3764,-328.79"/>
</g>
<!-- 19 -->
<g id="node20" class="node">
<title>19</title>
<path fill="none" stroke="#5682d8" stroke-width="2" stroke-dasharray="5,2" d="M303.8267,-468C303.8267,-468 222.9165,-468 222.9165,-468 216.9165,-468 210.9165,-462 210.9165,-456 210.9165,-456 210.9165,-444 210.9165,-444 210.9165,-438 216.9165,-432 222.9165,-432 222.9165,-432 303.8267,-432 303.8267,-432 309.8267,-432 315.8267,-438 315.8267,-444 315.8267,-444 315.8267,-456 315.8267,-456 315.8267,-462 309.8267,-468 303.8267,-468"/>
<text text-anchor="middle" x="263.3716" y="-452" font-family="sans" font-size="10.00" fill="#000000">fastq_to_fasta</text>
<text text-anchor="middle" x="263.3716" y="-442" font-family="sans" font-size="10.00" fill="#000000">barcode: barcode07</text>
</g>
<!-- 16&#45;&gt;19 -->
<g id="edge36" class="edge">
<title>16&#45;&gt;19</title>
<path fill="none" stroke="#c0c0c0" stroke-width="2" d="M246.9231,-503.8314C249.3019,-496.0463 252.1354,-486.7729 254.7749,-478.1347"/>
<polygon fill="#c0c0c0" stroke="#c0c0c0" stroke-width="2" points="258.1703,-478.9996 257.7453,-468.4133 251.4758,-476.954 258.1703,-478.9996"/>
</g>
<!-- 17 -->
<g id="node18" class="node">
<title>17</title>
<path fill="none" stroke="#56d8b1" stroke-width="2" stroke-dasharray="5,2" d="M450.2511,-540C450.2511,-540 364.492,-540 364.492,-540 358.492,-540 352.492,-534 352.492,-528 352.492,-528 352.492,-516 352.492,-516 352.492,-510 358.492,-504 364.492,-504 364.492,-504 450.2511,-504 450.2511,-504 456.2511,-504 462.2511,-510 462.2511,-516 462.2511,-516 462.2511,-528 462.2511,-528 462.2511,-534 456.2511,-540 450.2511,-540"/>
<text text-anchor="middle" x="407.3716" y="-519" font-family="sans" font-size="10.00" fill="#000000">make_amplicon_files</text>
</g>
<!-- 17&#45;&gt;12 -->
<g id="edge29" class="edge">
<title>17&#45;&gt;12</title>
<path fill="none" stroke="#c0c0c0" stroke-width="2" d="M428.2294,-503.6461C437.5256,-494.0709 447.4694,-481.54 452.3716,-468 457.8184,-452.9557 457.9569,-446.9935 452.3716,-432 436.9989,-390.733 401.3581,-353.985 374.9944,-330.977"/>
<polygon fill="#c0c0c0" stroke="#c0c0c0" stroke-width="2" points="377.0249,-328.1089 367.1431,-324.2879 372.4852,-333.4373 377.0249,-328.1089"/>
</g>
<!-- 17&#45;&gt;15 -->
<g id="edge32" class="edge">
<title>17&#45;&gt;15</title>
<path fill="none" stroke="#c0c0c0" stroke-width="2" d="M388.1737,-503.6291C379.0467,-493.8663 368.7597,-481.1774 362.3716,-468 352.9378,-448.54 348.168,-424.4835 345.7676,-406.139"/>
<polygon fill="#c0c0c0" stroke="#c0c0c0" stroke-width="2" points="349.23,-405.6108 344.6108,-396.076 342.2758,-406.4104 349.23,-405.6108"/>
</g>
<!-- 18 -->
<g id="node19" class="node">
<title>18</title>
<path fill="none" stroke="#70d856" stroke-width="2" stroke-dasharray="5,2" d="M431.5714,-468C431.5714,-468 383.1717,-468 383.1717,-468 377.1717,-468 371.1717,-462 371.1717,-456 371.1717,-456 371.1717,-444 371.1717,-444 371.1717,-438 377.1717,-432 383.1717,-432 383.1717,-432 431.5714,-432 431.5714,-432 437.5714,-432 443.5714,-438 443.5714,-444 443.5714,-444 443.5714,-456 443.5714,-456 443.5714,-462 437.5714,-468 431.5714,-468"/>
<text text-anchor="middle" x="407.3716" y="-447" font-family="sans" font-size="10.00" fill="#000000">makeblastdb</text>
</g>
<!-- 17&#45;&gt;18 -->
<g id="edge35" class="edge">
<title>17&#45;&gt;18</title>
<path fill="none" stroke="#c0c0c0" stroke-width="2" d="M407.3716,-503.8314C407.3716,-496.131 407.3716,-486.9743 407.3716,-478.4166"/>
<polygon fill="#c0c0c0" stroke="#c0c0c0" stroke-width="2" points="410.8717,-478.4132 407.3716,-468.4133 403.8717,-478.4133 410.8717,-478.4132"/>
</g>
<!-- 18&#45;&gt;15 -->
<g id="edge31" class="edge">
<title>18&#45;&gt;15</title>
<path fill="none" stroke="#c0c0c0" stroke-width="2" d="M391.2217,-431.8314C383.6999,-423.3694 374.6151,-413.1489 366.3912,-403.8971"/>
<polygon fill="#c0c0c0" stroke="#c0c0c0" stroke-width="2" points="368.9985,-401.5621 359.7389,-396.4133 363.7667,-406.2127 368.9985,-401.5621"/>
</g>
<!-- 19&#45;&gt;15 -->
<g id="edge33" class="edge">
<title>19&#45;&gt;15</title>
<path fill="none" stroke="#c0c0c0" stroke-width="2" d="M283.559,-431.8314C293.223,-423.1337 304.9512,-412.5783 315.4532,-403.1265"/>
<polygon fill="#c0c0c0" stroke="#c0c0c0" stroke-width="2" points="318.0991,-405.454 323.1907,-396.1628 313.4163,-400.251 318.0991,-405.454"/>
</g>
</g>
</svg>
