<?xml version="1.0" encoding="UTF-8" standalone="no"?>
<!DOCTYPE svg PUBLIC "-//W3C//DTD SVG 1.1//EN"
 "http://www.w3.org/Graphics/SVG/1.1/DTD/svg11.dtd">
<!-- Generated by graphviz version 2.40.1 (20161225.0304)
 -->
<!-- Title: snakemake_dag Pages: 1 -->
<svg width="414pt" height="908pt"
 viewBox="0.00 0.00 414.00 908.00" xmlns="http://www.w3.org/2000/svg" xmlns:xlink="http://www.w3.org/1999/xlink">
<g id="graph0" class="graph" transform="scale(1 1) rotate(0) translate(4 904)">
<title>snakemake_dag</title>
<polygon fill="#ffffff" stroke="transparent" points="-4,4 -4,-904 410,-904 410,4 -4,4"/>
<!-- 0 -->
<g id="node1" class="node">
<title>0</title>
<path fill="none" stroke="#567bd8" stroke-width="2" d="M281,-36C281,-36 251,-36 251,-36 245,-36 239,-30 239,-24 239,-24 239,-12 239,-12 239,-6 245,0 251,0 251,0 281,0 281,0 287,0 293,-6 293,-12 293,-12 293,-24 293,-24 293,-30 287,-36 281,-36"/>
<text text-anchor="middle" x="266" y="-15" font-family="sans" font-size="10.00" fill="#000000">all</text>
</g>
<!-- 1 -->
<g id="node2" class="node">
<title>1</title>
<path fill="none" stroke="#d89556" stroke-width="2" d="M315.2434,-108C315.2434,-108 216.7566,-108 216.7566,-108 210.7566,-108 204.7566,-102 204.7566,-96 204.7566,-96 204.7566,-84 204.7566,-84 204.7566,-78 210.7566,-72 216.7566,-72 216.7566,-72 315.2434,-72 315.2434,-72 321.2434,-72 327.2434,-78 327.2434,-84 327.2434,-84 327.2434,-96 327.2434,-96 327.2434,-102 321.2434,-108 315.2434,-108"/>
<text text-anchor="middle" x="266" y="-87" font-family="sans" font-size="10.00" fill="#000000">organise_minion_output</text>
</g>
<!-- 1&#45;&gt;0 -->
<g id="edge1" class="edge">
<title>1&#45;&gt;0</title>
<path fill="none" stroke="#c0c0c0" stroke-width="2" d="M266,-71.8314C266,-64.131 266,-54.9743 266,-46.4166"/>
<polygon fill="#c0c0c0" stroke="#c0c0c0" stroke-width="2" points="269.5001,-46.4132 266,-36.4133 262.5001,-46.4133 269.5001,-46.4132"/>
</g>
<!-- 2 -->
<g id="node3" class="node">
<title>2</title>
<path fill="none" stroke="#78d856" stroke-width="2" d="M288.9112,-180C288.9112,-180 243.0888,-180 243.0888,-180 237.0888,-180 231.0888,-174 231.0888,-168 231.0888,-168 231.0888,-156 231.0888,-156 231.0888,-150 237.0888,-144 243.0888,-144 243.0888,-144 288.9112,-144 288.9112,-144 294.9112,-144 300.9112,-150 300.9112,-156 300.9112,-156 300.9112,-168 300.9112,-168 300.9112,-174 294.9112,-180 288.9112,-180"/>
<text text-anchor="middle" x="266" y="-159" font-family="sans" font-size="10.00" fill="#000000">artic_minion</text>
</g>
<!-- 2&#45;&gt;1 -->
<g id="edge2" class="edge">
<title>2&#45;&gt;1</title>
<path fill="none" stroke="#c0c0c0" stroke-width="2" d="M266,-143.8314C266,-136.131 266,-126.9743 266,-118.4166"/>
<polygon fill="#c0c0c0" stroke="#c0c0c0" stroke-width="2" points="269.5001,-118.4132 266,-108.4133 262.5001,-118.4133 269.5001,-118.4132"/>
</g>
<!-- 3 -->
<g id="node4" class="node">
<title>3</title>
<path fill="none" stroke="#569ad8" stroke-width="2" stroke-dasharray="5,2" d="M274.544,-828C274.544,-828 207.456,-828 207.456,-828 201.456,-828 195.456,-822 195.456,-816 195.456,-816 195.456,-804 195.456,-804 195.456,-798 201.456,-792 207.456,-792 207.456,-792 274.544,-792 274.544,-792 280.544,-792 286.544,-798 286.544,-804 286.544,-804 286.544,-816 286.544,-816 286.544,-822 280.544,-828 274.544,-828"/>
<text text-anchor="middle" x="241" y="-807" font-family="sans" font-size="10.00" fill="#000000">demultiplex_qcat</text>
</g>
<!-- 3&#45;&gt;2 -->
<g id="edge3" class="edge">
<title>3&#45;&gt;2</title>
<path fill="none" stroke="#c0c0c0" stroke-width="2" d="M243.6754,-791.8519C250.1248,-746.4761 266,-624.3836 266,-522 266,-522 266,-522 266,-306 266,-265.876 266,-219.4631 266,-190.4177"/>
<polygon fill="#c0c0c0" stroke="#c0c0c0" stroke-width="2" points="269.5001,-190.1853 266,-180.1854 262.5001,-190.1854 269.5001,-190.1853"/>
</g>
<!-- 8 -->
<g id="node9" class="node">
<title>8</title>
<path fill="none" stroke="#d87556" stroke-width="2" stroke-dasharray="5,2" d="M147.4551,-756C147.4551,-756 66.5449,-756 66.5449,-756 60.5449,-756 54.5449,-750 54.5449,-744 54.5449,-744 54.5449,-732 54.5449,-732 54.5449,-726 60.5449,-720 66.5449,-720 66.5449,-720 147.4551,-720 147.4551,-720 153.4551,-720 159.4551,-726 159.4551,-732 159.4551,-732 159.4551,-744 159.4551,-744 159.4551,-750 153.4551,-756 147.4551,-756"/>
<text text-anchor="middle" x="107" y="-740" font-family="sans" font-size="10.00" fill="#000000">minimap2</text>
<text text-anchor="middle" x="107" y="-730" font-family="sans" font-size="10.00" fill="#000000">barcode: barcode01</text>
</g>
<!-- 3&#45;&gt;8 -->
<g id="edge14" class="edge">
<title>3&#45;&gt;8</title>
<path fill="none" stroke="#c0c0c0" stroke-width="2" d="M207.1861,-791.8314C189.7293,-782.4516 168.2513,-770.9112 149.6648,-760.9244"/>
<polygon fill="#c0c0c0" stroke="#c0c0c0" stroke-width="2" points="151.2686,-757.8129 140.803,-756.1628 147.9554,-763.9792 151.2686,-757.8129"/>
</g>
<!-- 14 -->
<g id="node15" class="node">
<title>14</title>
<path fill="none" stroke="#59d856" stroke-width="2" stroke-dasharray="5,2" d="M226.46,-612C226.46,-612 115.54,-612 115.54,-612 109.54,-612 103.54,-606 103.54,-600 103.54,-600 103.54,-588 103.54,-588 103.54,-582 109.54,-576 115.54,-576 115.54,-576 226.46,-576 226.46,-576 232.46,-576 238.46,-582 238.46,-588 238.46,-588 238.46,-600 238.46,-600 238.46,-606 232.46,-612 226.46,-612"/>
<text text-anchor="middle" x="171" y="-591" font-family="sans" font-size="10.00" fill="#000000">minimap_to_top_reference</text>
</g>
<!-- 3&#45;&gt;14 -->
<g id="edge22" class="edge">
<title>3&#45;&gt;14</title>
<path fill="none" stroke="#c0c0c0" stroke-width="2" d="M235.1522,-791.9555C222.928,-754.235 194.5987,-666.8188 180.0222,-621.8399"/>
<polygon fill="#c0c0c0" stroke="#c0c0c0" stroke-width="2" points="183.2928,-620.579 176.8803,-612.1451 176.6338,-622.737 183.2928,-620.579"/>
</g>
<!-- 4 -->
<g id="node5" class="node">
<title>4</title>
<path fill="none" stroke="#56b9d8" stroke-width="2" stroke-dasharray="5,2" d="M387.7337,-900C387.7337,-900 274.2663,-900 274.2663,-900 268.2663,-900 262.2663,-894 262.2663,-888 262.2663,-888 262.2663,-876 262.2663,-876 262.2663,-870 268.2663,-864 274.2663,-864 274.2663,-864 387.7337,-864 387.7337,-864 393.7337,-864 399.7337,-870 399.7337,-876 399.7337,-876 399.7337,-888 399.7337,-888 399.7337,-894 393.7337,-900 387.7337,-900"/>
<text text-anchor="middle" x="331" y="-884" font-family="sans" font-size="10.00" fill="#000000">gather</text>
<text text-anchor="middle" x="331" y="-874" font-family="sans" font-size="10.00" fill="#000000">run_name: noro_GOSH_2k</text>
</g>
<!-- 4&#45;&gt;2 -->
<g id="edge4" class="edge">
<title>4&#45;&gt;2</title>
<path fill="none" stroke="#c0c0c0" stroke-width="2" d="M348.0187,-863.5779C370.1468,-837.6309 406,-787.8921 406,-738 406,-738 406,-738 406,-306 406,-249.9647 350.8274,-207.5346 309.7532,-183.7108"/>
<polygon fill="#c0c0c0" stroke="#c0c0c0" stroke-width="2" points="311.3986,-180.6207 300.9668,-178.7691 307.967,-186.7219 311.3986,-180.6207"/>
</g>
<!-- 4&#45;&gt;3 -->
<g id="edge8" class="edge">
<title>4&#45;&gt;3</title>
<path fill="none" stroke="#c0c0c0" stroke-width="2" d="M308.2892,-863.8314C297.204,-854.9632 283.7046,-844.1637 271.7148,-834.5718"/>
<polygon fill="#c0c0c0" stroke="#c0c0c0" stroke-width="2" points="273.6987,-831.6768 263.7035,-828.1628 269.3258,-837.1429 273.6987,-831.6768"/>
</g>
<!-- 5 -->
<g id="node6" class="node">
<title>5</title>
<path fill="none" stroke="#56d89a" stroke-width="2" stroke-dasharray="5,2" d="M365.8419,-756C365.8419,-756 296.1581,-756 296.1581,-756 290.1581,-756 284.1581,-750 284.1581,-744 284.1581,-744 284.1581,-732 284.1581,-732 284.1581,-726 290.1581,-720 296.1581,-720 296.1581,-720 365.8419,-720 365.8419,-720 371.8419,-720 377.8419,-726 377.8419,-732 377.8419,-732 377.8419,-744 377.8419,-744 377.8419,-750 371.8419,-756 365.8419,-756"/>
<text text-anchor="middle" x="331" y="-735" font-family="sans" font-size="10.00" fill="#000000">nanopolish_index</text>
</g>
<!-- 4&#45;&gt;5 -->
<g id="edge9" class="edge">
<title>4&#45;&gt;5</title>
<path fill="none" stroke="#c0c0c0" stroke-width="2" d="M331,-863.7623C331,-839.201 331,-795.2474 331,-766.3541"/>
<polygon fill="#c0c0c0" stroke="#c0c0c0" stroke-width="2" points="334.5001,-766.0896 331,-756.0896 327.5001,-766.0897 334.5001,-766.0896"/>
</g>
<!-- 5&#45;&gt;2 -->
<g id="edge5" class="edge">
<title>5&#45;&gt;2</title>
<path fill="none" stroke="#c0c0c0" stroke-width="2" d="M327.2704,-719.9053C321.9981,-692.7046 313,-639.6021 313,-594 313,-594 313,-594 313,-306 313,-263.6562 294.4068,-217.6118 280.6094,-189.273"/>
<polygon fill="#c0c0c0" stroke="#c0c0c0" stroke-width="2" points="283.5809,-187.3907 275.9675,-180.0228 277.3245,-190.5304 283.5809,-187.3907"/>
</g>
<!-- 6 -->
<g id="node7" class="node">
<title>6</title>
<path fill="none" stroke="#b6d856" stroke-width="2" stroke-dasharray="5,2" d="M113.8943,-684C113.8943,-684 38.1057,-684 38.1057,-684 32.1057,-684 26.1057,-678 26.1057,-672 26.1057,-672 26.1057,-660 26.1057,-660 26.1057,-654 32.1057,-648 38.1057,-648 38.1057,-648 113.8943,-648 113.8943,-648 119.8943,-648 125.8943,-654 125.8943,-660 125.8943,-660 125.8943,-672 125.8943,-672 125.8943,-678 119.8943,-684 113.8943,-684"/>
<text text-anchor="middle" x="76" y="-663" font-family="sans" font-size="10.00" fill="#000000">find_top_reference</text>
</g>
<!-- 6&#45;&gt;2 -->
<g id="edge6" class="edge">
<title>6&#45;&gt;2</title>
<path fill="none" stroke="#c0c0c0" stroke-width="2" d="M58.7544,-647.6186C36.3312,-621.719 0,-572.0348 0,-522 0,-522 0,-522 0,-306 0,-206.8199 144.7813,-175.6043 220.716,-166.0529"/>
<polygon fill="#c0c0c0" stroke="#c0c0c0" stroke-width="2" points="221.4311,-169.4929 230.9516,-164.8441 220.6101,-162.5412 221.4311,-169.4929"/>
</g>
<!-- 7 -->
<g id="node8" class="node">
<title>7</title>
<path fill="none" stroke="#97d856" stroke-width="2" stroke-dasharray="5,2" d="M193.7532,-252C193.7532,-252 80.2468,-252 80.2468,-252 74.2468,-252 68.2468,-246 68.2468,-240 68.2468,-240 68.2468,-228 68.2468,-228 68.2468,-222 74.2468,-216 80.2468,-216 80.2468,-216 193.7532,-216 193.7532,-216 199.7532,-216 205.7532,-222 205.7532,-228 205.7532,-228 205.7532,-240 205.7532,-240 205.7532,-246 199.7532,-252 193.7532,-252"/>
<text text-anchor="middle" x="137" y="-231" font-family="sans" font-size="10.00" fill="#000000">generate_quick_consensus</text>
</g>
<!-- 6&#45;&gt;7 -->
<g id="edge11" class="edge">
<title>6&#45;&gt;7</title>
<path fill="none" stroke="#c0c0c0" stroke-width="2" d="M67.9412,-647.7668C56.7866,-620.8248 38,-568.5405 38,-522 38,-522 38,-522 38,-378 38,-336.2388 41.0977,-322.2444 65,-288 73.1319,-276.3496 84.5707,-266.1627 95.9413,-257.8695"/>
<polygon fill="#c0c0c0" stroke="#c0c0c0" stroke-width="2" points="97.9363,-260.7453 104.1606,-252.1716 93.9481,-254.9925 97.9363,-260.7453"/>
</g>
<!-- 9 -->
<g id="node10" class="node">
<title>9</title>
<path fill="none" stroke="#d85656" stroke-width="2" stroke-dasharray="5,2" d="M137.5293,-396C137.5293,-396 90.4707,-396 90.4707,-396 84.4707,-396 78.4707,-390 78.4707,-384 78.4707,-384 78.4707,-372 78.4707,-372 78.4707,-366 84.4707,-360 90.4707,-360 90.4707,-360 137.5293,-360 137.5293,-360 143.5293,-360 149.5293,-366 149.5293,-372 149.5293,-372 149.5293,-384 149.5293,-384 149.5293,-390 143.5293,-396 137.5293,-396"/>
<text text-anchor="middle" x="114" y="-375" font-family="sans" font-size="10.00" fill="#000000">bcftools_call</text>
</g>
<!-- 6&#45;&gt;9 -->
<g id="edge16" class="edge">
<title>6&#45;&gt;9</title>
<path fill="none" stroke="#c0c0c0" stroke-width="2" d="M78.3771,-647.9843C84.8015,-599.2939 102.5477,-464.7961 110.298,-406.0573"/>
<polygon fill="#c0c0c0" stroke="#c0c0c0" stroke-width="2" points="113.7856,-406.3808 111.6238,-396.0089 106.8457,-405.4651 113.7856,-406.3808"/>
</g>
<!-- 6&#45;&gt;14 -->
<g id="edge23" class="edge">
<title>6&#45;&gt;14</title>
<path fill="none" stroke="#c0c0c0" stroke-width="2" d="M99.9725,-647.8314C111.7861,-638.8779 126.1972,-627.9558 138.9435,-618.2955"/>
<polygon fill="#c0c0c0" stroke="#c0c0c0" stroke-width="2" points="141.1795,-620.9925 147.0352,-612.1628 136.9514,-615.4137 141.1795,-620.9925"/>
</g>
<!-- 7&#45;&gt;2 -->
<g id="edge7" class="edge">
<title>7&#45;&gt;2</title>
<path fill="none" stroke="#c0c0c0" stroke-width="2" d="M169.5521,-215.8314C186.2048,-206.5368 206.6585,-195.1208 224.4385,-185.1971"/>
<polygon fill="#c0c0c0" stroke="#c0c0c0" stroke-width="2" points="226.4321,-188.0927 233.4583,-180.1628 223.0205,-181.9803 226.4321,-188.0927"/>
</g>
<!-- 8&#45;&gt;6 -->
<g id="edge10" class="edge">
<title>8&#45;&gt;6</title>
<path fill="none" stroke="#c0c0c0" stroke-width="2" d="M99.1774,-719.8314C95.7891,-711.9617 91.7459,-702.5712 87.9924,-693.8533"/>
<polygon fill="#c0c0c0" stroke="#c0c0c0" stroke-width="2" points="91.0973,-692.214 83.9279,-684.4133 84.6679,-694.9822 91.0973,-692.214"/>
</g>
<!-- 9&#45;&gt;7 -->
<g id="edge12" class="edge">
<title>9&#45;&gt;7</title>
<path fill="none" stroke="#c0c0c0" stroke-width="2" d="M129.5525,-359.8462C137.0046,-349.947 145.1347,-337.0702 149,-324 155.007,-303.6877 151.4015,-279.9023 146.6198,-261.8864"/>
<polygon fill="#c0c0c0" stroke="#c0c0c0" stroke-width="2" points="149.9757,-260.8922 143.8143,-252.2732 143.256,-262.8533 149.9757,-260.8922"/>
</g>
<!-- 10 -->
<g id="node11" class="node">
<title>10</title>
<path fill="none" stroke="#d8b456" stroke-width="2" stroke-dasharray="5,2" d="M127.9744,-324C127.9744,-324 86.0256,-324 86.0256,-324 80.0256,-324 74.0256,-318 74.0256,-312 74.0256,-312 74.0256,-300 74.0256,-300 74.0256,-294 80.0256,-288 86.0256,-288 86.0256,-288 127.9744,-288 127.9744,-288 133.9744,-288 139.9744,-294 139.9744,-300 139.9744,-300 139.9744,-312 139.9744,-312 139.9744,-318 133.9744,-324 127.9744,-324"/>
<text text-anchor="middle" x="107" y="-303" font-family="sans" font-size="10.00" fill="#000000">index_calls</text>
</g>
<!-- 9&#45;&gt;10 -->
<g id="edge19" class="edge">
<title>9&#45;&gt;10</title>
<path fill="none" stroke="#c0c0c0" stroke-width="2" d="M112.2336,-359.8314C111.485,-352.131 110.5947,-342.9743 109.7627,-334.4166"/>
<polygon fill="#c0c0c0" stroke="#c0c0c0" stroke-width="2" points="113.2415,-334.0276 108.7902,-324.4133 106.2744,-334.7051 113.2415,-334.0276"/>
</g>
<!-- 10&#45;&gt;7 -->
<g id="edge13" class="edge">
<title>10&#45;&gt;7</title>
<path fill="none" stroke="#c0c0c0" stroke-width="2" d="M114.5703,-287.8314C117.8493,-279.9617 121.762,-270.5712 125.3945,-261.8533"/>
<polygon fill="#c0c0c0" stroke="#c0c0c0" stroke-width="2" points="128.7124,-262.9902 129.3278,-252.4133 122.2508,-260.2979 128.7124,-262.9902"/>
</g>
<!-- 11 -->
<g id="node12" class="node">
<title>11</title>
<path fill="none" stroke="#d6d856" stroke-width="2" stroke-dasharray="5,2" d="M139.3176,-828C139.3176,-828 74.6824,-828 74.6824,-828 68.6824,-828 62.6824,-822 62.6824,-816 62.6824,-816 62.6824,-804 62.6824,-804 62.6824,-798 68.6824,-792 74.6824,-792 74.6824,-792 139.3176,-792 139.3176,-792 145.3176,-792 151.3176,-798 151.3176,-804 151.3176,-804 151.3176,-816 151.3176,-816 151.3176,-822 145.3176,-828 139.3176,-828"/>
<text text-anchor="middle" x="107" y="-807" font-family="sans" font-size="10.00" fill="#000000">minimap2_index</text>
</g>
<!-- 11&#45;&gt;8 -->
<g id="edge15" class="edge">
<title>11&#45;&gt;8</title>
<path fill="none" stroke="#c0c0c0" stroke-width="2" d="M107,-791.8314C107,-784.131 107,-774.9743 107,-766.4166"/>
<polygon fill="#c0c0c0" stroke="#c0c0c0" stroke-width="2" points="110.5001,-766.4132 107,-756.4133 103.5001,-766.4133 110.5001,-766.4132"/>
</g>
<!-- 12 -->
<g id="node13" class="node">
<title>12</title>
<path fill="none" stroke="#56d8d8" stroke-width="2" stroke-dasharray="5,2" d="M198.2465,-540C198.2465,-540 143.7535,-540 143.7535,-540 137.7535,-540 131.7535,-534 131.7535,-528 131.7535,-528 131.7535,-516 131.7535,-516 131.7535,-510 137.7535,-504 143.7535,-504 143.7535,-504 198.2465,-504 198.2465,-504 204.2465,-504 210.2465,-510 210.2465,-516 210.2465,-516 210.2465,-528 210.2465,-528 210.2465,-534 204.2465,-540 198.2465,-540"/>
<text text-anchor="middle" x="171" y="-519" font-family="sans" font-size="10.00" fill="#000000">samtools_sort</text>
</g>
<!-- 12&#45;&gt;9 -->
<g id="edge17" class="edge">
<title>12&#45;&gt;9</title>
<path fill="none" stroke="#c0c0c0" stroke-width="2" d="M155.254,-503.6429C147.4748,-493.6881 138.5829,-480.8229 133,-468 124.4204,-448.2941 119.6105,-424.4331 116.9779,-406.2324"/>
<polygon fill="#c0c0c0" stroke="#c0c0c0" stroke-width="2" points="120.4387,-405.704 115.6674,-396.2443 113.4981,-406.6147 120.4387,-405.704"/>
</g>
<!-- 13 -->
<g id="node14" class="node">
<title>13</title>
<path fill="none" stroke="#56d8b9" stroke-width="2" stroke-dasharray="5,2" d="M215.9838,-468C215.9838,-468 154.0162,-468 154.0162,-468 148.0162,-468 142.0162,-462 142.0162,-456 142.0162,-456 142.0162,-444 142.0162,-444 142.0162,-438 148.0162,-432 154.0162,-432 154.0162,-432 215.9838,-432 215.9838,-432 221.9838,-432 227.9838,-438 227.9838,-444 227.9838,-444 227.9838,-456 227.9838,-456 227.9838,-462 221.9838,-468 215.9838,-468"/>
<text text-anchor="middle" x="185" y="-447" font-family="sans" font-size="10.00" fill="#000000">samtools_index</text>
</g>
<!-- 12&#45;&gt;13 -->
<g id="edge21" class="edge">
<title>12&#45;&gt;13</title>
<path fill="none" stroke="#c0c0c0" stroke-width="2" d="M174.5328,-503.8314C176.0301,-496.131 177.8105,-486.9743 179.4745,-478.4166"/>
<polygon fill="#c0c0c0" stroke="#c0c0c0" stroke-width="2" points="182.9465,-478.8975 181.4196,-468.4133 176.0752,-477.5614 182.9465,-478.8975"/>
</g>
<!-- 13&#45;&gt;9 -->
<g id="edge18" class="edge">
<title>13&#45;&gt;9</title>
<path fill="none" stroke="#c0c0c0" stroke-width="2" d="M167.0837,-431.8314C158.6558,-423.2848 148.459,-412.9443 139.264,-403.6198"/>
<polygon fill="#c0c0c0" stroke="#c0c0c0" stroke-width="2" points="141.6711,-401.0761 132.1575,-396.4133 136.6869,-405.9912 141.6711,-401.0761"/>
</g>
<!-- 14&#45;&gt;12 -->
<g id="edge20" class="edge">
<title>14&#45;&gt;12</title>
<path fill="none" stroke="#c0c0c0" stroke-width="2" d="M171,-575.8314C171,-568.131 171,-558.9743 171,-550.4166"/>
<polygon fill="#c0c0c0" stroke="#c0c0c0" stroke-width="2" points="174.5001,-550.4132 171,-540.4133 167.5001,-550.4133 174.5001,-550.4132"/>
</g>
</g>
</svg>
