<?xml version="1.0" encoding="UTF-8" standalone="no"?>
<!DOCTYPE svg PUBLIC "-//W3C//DTD SVG 1.1//EN"
 "http://www.w3.org/Graphics/SVG/1.1/DTD/svg11.dtd">
<!-- Generated by graphviz version 2.40.1 (20161225.0304)
 -->
<!-- Title: snakemake_dag Pages: 1 -->
<svg width="601pt" height="620pt"
 viewBox="0.00 0.00 600.58 620.00" xmlns="http://www.w3.org/2000/svg" xmlns:xlink="http://www.w3.org/1999/xlink">
<g id="graph0" class="graph" transform="scale(1 1) rotate(0) translate(4 616)">
<title>snakemake_dag</title>
<polygon fill="#ffffff" stroke="transparent" points="-4,4 -4,-616 596.5762,-616 596.5762,4 -4,4"/>
<!-- 0 -->
<g id="node1" class="node">
<title>0</title>
<path fill="none" stroke="#569ad8" stroke-width="2" d="M409.5762,-36C409.5762,-36 379.5762,-36 379.5762,-36 373.5762,-36 367.5762,-30 367.5762,-24 367.5762,-24 367.5762,-12 367.5762,-12 367.5762,-6 373.5762,0 379.5762,0 379.5762,0 409.5762,0 409.5762,0 415.5762,0 421.5762,-6 421.5762,-12 421.5762,-12 421.5762,-24 421.5762,-24 421.5762,-30 415.5762,-36 409.5762,-36"/>
<text text-anchor="middle" x="394.5762" y="-15" font-family="sans" font-size="10.00" fill="#000000">all</text>
</g>
<!-- 1 -->
<g id="node2" class="node">
<title>1</title>
<path fill="none" stroke="#88d856" stroke-width="2" d="M431.2531,-108C431.2531,-108 357.8993,-108 357.8993,-108 351.8993,-108 345.8993,-102 345.8993,-96 345.8993,-96 345.8993,-84 345.8993,-84 345.8993,-78 351.8993,-72 357.8993,-72 357.8993,-72 431.2531,-72 431.2531,-72 437.2531,-72 443.2531,-78 443.2531,-84 443.2531,-84 443.2531,-96 443.2531,-96 443.2531,-102 437.2531,-108 431.2531,-108"/>
<text text-anchor="middle" x="394.5762" y="-87" font-family="sans" font-size="10.00" fill="#000000">generate_genome</text>
</g>
<!-- 1&#45;&gt;0 -->
<g id="edge1" class="edge">
<title>1&#45;&gt;0</title>
<path fill="none" stroke="#c0c0c0" stroke-width="2" d="M394.5762,-71.8314C394.5762,-64.131 394.5762,-54.9743 394.5762,-46.4166"/>
<polygon fill="#c0c0c0" stroke="#c0c0c0" stroke-width="2" points="398.0763,-46.4132 394.5762,-36.4133 391.0763,-46.4133 398.0763,-46.4132"/>
</g>
<!-- 2 -->
<g id="node3" class="node">
<title>2</title>
<path fill="none" stroke="#d88556" stroke-width="2" d="M348.5762,-324C348.5762,-324 318.5762,-324 318.5762,-324 312.5762,-324 306.5762,-318 306.5762,-312 306.5762,-312 306.5762,-300 306.5762,-300 306.5762,-294 312.5762,-288 318.5762,-288 318.5762,-288 348.5762,-288 348.5762,-288 354.5762,-288 360.5762,-294 360.5762,-300 360.5762,-300 360.5762,-312 360.5762,-312 360.5762,-318 354.5762,-324 348.5762,-324"/>
<text text-anchor="middle" x="333.5762" y="-303" font-family="sans" font-size="10.00" fill="#000000">bin</text>
</g>
<!-- 2&#45;&gt;1 -->
<g id="edge2" class="edge">
<title>2&#45;&gt;1</title>
<path fill="none" stroke="#c0c0c0" stroke-width="2" d="M360.7682,-301.9917C407.0198,-294.5569 497.8336,-277.0721 516.5762,-252 553.466,-202.6521 482.9163,-145.0726 434.574,-113.5738"/>
<polygon fill="#c0c0c0" stroke="#c0c0c0" stroke-width="2" points="436.4475,-110.6174 426.1346,-108.1895 432.6826,-116.5187 436.4475,-110.6174"/>
</g>
<!-- 7 -->
<g id="node8" class="node">
<title>7</title>
<path fill="none" stroke="#56d882" stroke-width="2" d="M75.2286,-252C75.2286,-252 11.9237,-252 11.9237,-252 5.9237,-252 -.0763,-246 -.0763,-240 -.0763,-240 -.0763,-228 -.0763,-228 -.0763,-222 5.9237,-216 11.9237,-216 11.9237,-216 75.2286,-216 75.2286,-216 81.2286,-216 87.2286,-222 87.2286,-228 87.2286,-228 87.2286,-240 87.2286,-240 87.2286,-246 81.2286,-252 75.2286,-252"/>
<text text-anchor="middle" x="43.5762" y="-236" font-family="sans" font-size="10.00" fill="#000000">artic_minion</text>
<text text-anchor="middle" x="43.5762" y="-226" font-family="sans" font-size="10.00" fill="#000000">amplicon: Amp1</text>
</g>
<!-- 2&#45;&gt;7 -->
<g id="edge16" class="edge">
<title>2&#45;&gt;7</title>
<path fill="none" stroke="#c0c0c0" stroke-width="2" d="M306.5655,-293.0878C301.9657,-291.1951 297.1846,-289.4115 292.5762,-288 210.465,-262.8501 183.5469,-273.7787 97.0977,-252.191"/>
<polygon fill="#c0c0c0" stroke="#c0c0c0" stroke-width="2" points="97.9617,-248.7993 87.4051,-249.6983 96.2182,-255.5788 97.9617,-248.7993"/>
</g>
<!-- 8 -->
<g id="node9" class="node">
<title>8</title>
<path fill="none" stroke="#56d882" stroke-width="2" d="M180.2286,-252C180.2286,-252 116.9237,-252 116.9237,-252 110.9237,-252 104.9237,-246 104.9237,-240 104.9237,-240 104.9237,-228 104.9237,-228 104.9237,-222 110.9237,-216 116.9237,-216 116.9237,-216 180.2286,-216 180.2286,-216 186.2286,-216 192.2286,-222 192.2286,-228 192.2286,-228 192.2286,-240 192.2286,-240 192.2286,-246 186.2286,-252 180.2286,-252"/>
<text text-anchor="middle" x="148.5762" y="-236" font-family="sans" font-size="10.00" fill="#000000">artic_minion</text>
<text text-anchor="middle" x="148.5762" y="-226" font-family="sans" font-size="10.00" fill="#000000">amplicon: Amp2</text>
</g>
<!-- 2&#45;&gt;8 -->
<g id="edge19" class="edge">
<title>2&#45;&gt;8</title>
<path fill="none" stroke="#c0c0c0" stroke-width="2" d="M306.3179,-293.784C301.7479,-291.8076 297.0409,-289.8156 292.5762,-288 262.8384,-275.907 229.2699,-263.2617 202.0287,-253.2504"/>
<polygon fill="#c0c0c0" stroke="#c0c0c0" stroke-width="2" points="202.8913,-249.8391 192.2976,-249.6872 200.4844,-256.4123 202.8913,-249.8391"/>
</g>
<!-- 9 -->
<g id="node10" class="node">
<title>9</title>
<path fill="none" stroke="#56d882" stroke-width="2" d="M285.2286,-252C285.2286,-252 221.9237,-252 221.9237,-252 215.9237,-252 209.9237,-246 209.9237,-240 209.9237,-240 209.9237,-228 209.9237,-228 209.9237,-222 215.9237,-216 221.9237,-216 221.9237,-216 285.2286,-216 285.2286,-216 291.2286,-216 297.2286,-222 297.2286,-228 297.2286,-228 297.2286,-240 297.2286,-240 297.2286,-246 291.2286,-252 285.2286,-252"/>
<text text-anchor="middle" x="253.5762" y="-236" font-family="sans" font-size="10.00" fill="#000000">artic_minion</text>
<text text-anchor="middle" x="253.5762" y="-226" font-family="sans" font-size="10.00" fill="#000000">amplicon: Amp3</text>
</g>
<!-- 2&#45;&gt;9 -->
<g id="edge22" class="edge">
<title>2&#45;&gt;9</title>
<path fill="none" stroke="#c0c0c0" stroke-width="2" d="M313.3888,-287.8314C303.7248,-279.1337 291.9966,-268.5783 281.4945,-259.1265"/>
<polygon fill="#c0c0c0" stroke="#c0c0c0" stroke-width="2" points="283.5314,-256.251 273.7571,-252.1628 278.8487,-261.454 283.5314,-256.251"/>
</g>
<!-- 10 -->
<g id="node11" class="node">
<title>10</title>
<path fill="none" stroke="#56d882" stroke-width="2" d="M390.2286,-252C390.2286,-252 326.9237,-252 326.9237,-252 320.9237,-252 314.9237,-246 314.9237,-240 314.9237,-240 314.9237,-228 314.9237,-228 314.9237,-222 320.9237,-216 326.9237,-216 326.9237,-216 390.2286,-216 390.2286,-216 396.2286,-216 402.2286,-222 402.2286,-228 402.2286,-228 402.2286,-240 402.2286,-240 402.2286,-246 396.2286,-252 390.2286,-252"/>
<text text-anchor="middle" x="358.5762" y="-236" font-family="sans" font-size="10.00" fill="#000000">artic_minion</text>
<text text-anchor="middle" x="358.5762" y="-226" font-family="sans" font-size="10.00" fill="#000000">amplicon: Amp4</text>
</g>
<!-- 2&#45;&gt;10 -->
<g id="edge25" class="edge">
<title>2&#45;&gt;10</title>
<path fill="none" stroke="#c0c0c0" stroke-width="2" d="M339.8847,-287.8314C342.5879,-280.0463 345.8078,-270.7729 348.8072,-262.1347"/>
<polygon fill="#c0c0c0" stroke="#c0c0c0" stroke-width="2" points="352.2089,-263.0081 352.1827,-252.4133 345.5961,-260.7119 352.2089,-263.0081"/>
</g>
<!-- 11 -->
<g id="node12" class="node">
<title>11</title>
<path fill="none" stroke="#56d882" stroke-width="2" d="M495.2286,-252C495.2286,-252 431.9237,-252 431.9237,-252 425.9237,-252 419.9237,-246 419.9237,-240 419.9237,-240 419.9237,-228 419.9237,-228 419.9237,-222 425.9237,-216 431.9237,-216 431.9237,-216 495.2286,-216 495.2286,-216 501.2286,-216 507.2286,-222 507.2286,-228 507.2286,-228 507.2286,-240 507.2286,-240 507.2286,-246 501.2286,-252 495.2286,-252"/>
<text text-anchor="middle" x="463.5762" y="-236" font-family="sans" font-size="10.00" fill="#000000">artic_minion</text>
<text text-anchor="middle" x="463.5762" y="-226" font-family="sans" font-size="10.00" fill="#000000">amplicon: Amp5</text>
</g>
<!-- 2&#45;&gt;11 -->
<g id="edge28" class="edge">
<title>2&#45;&gt;11</title>
<path fill="none" stroke="#c0c0c0" stroke-width="2" d="M360.8284,-290.9064C378.5193,-281.1084 401.919,-268.1486 421.9188,-257.0718"/>
<polygon fill="#c0c0c0" stroke="#c0c0c0" stroke-width="2" points="423.7838,-260.0399 430.8359,-252.133 420.3923,-253.9163 423.7838,-260.0399"/>
</g>
<!-- 3 -->
<g id="node4" class="node">
<title>3</title>
<path fill="none" stroke="#d85656" stroke-width="2" d="M342.0117,-180C342.0117,-180 271.1406,-180 271.1406,-180 265.1406,-180 259.1406,-174 259.1406,-168 259.1406,-168 259.1406,-156 259.1406,-156 259.1406,-150 265.1406,-144 271.1406,-144 271.1406,-144 342.0117,-144 342.0117,-144 348.0117,-144 354.0117,-150 354.0117,-156 354.0117,-156 354.0117,-168 354.0117,-168 354.0117,-174 348.0117,-180 342.0117,-180"/>
<text text-anchor="middle" x="306.5762" y="-159" font-family="sans" font-size="10.00" fill="#000000">gather_amplicons</text>
</g>
<!-- 3&#45;&gt;1 -->
<g id="edge3" class="edge">
<title>3&#45;&gt;1</title>
<path fill="none" stroke="#c0c0c0" stroke-width="2" d="M328.7823,-143.8314C339.6211,-134.9632 352.8206,-124.1637 364.5439,-114.5718"/>
<polygon fill="#c0c0c0" stroke="#c0c0c0" stroke-width="2" points="366.8539,-117.2041 372.3772,-108.1628 362.4212,-111.7864 366.8539,-117.2041"/>
</g>
<!-- 4 -->
<g id="node5" class="node">
<title>4</title>
<path fill="none" stroke="#9fd856" stroke-width="2" d="M348.5762,-396C348.5762,-396 318.5762,-396 318.5762,-396 312.5762,-396 306.5762,-390 306.5762,-384 306.5762,-384 306.5762,-372 306.5762,-372 306.5762,-366 312.5762,-360 318.5762,-360 318.5762,-360 348.5762,-360 348.5762,-360 354.5762,-360 360.5762,-366 360.5762,-372 360.5762,-372 360.5762,-384 360.5762,-384 360.5762,-390 354.5762,-396 348.5762,-396"/>
<text text-anchor="middle" x="333.5762" y="-375" font-family="sans" font-size="10.00" fill="#000000">blastn</text>
</g>
<!-- 4&#45;&gt;2 -->
<g id="edge4" class="edge">
<title>4&#45;&gt;2</title>
<path fill="none" stroke="#c0c0c0" stroke-width="2" d="M333.5762,-359.8314C333.5762,-352.131 333.5762,-342.9743 333.5762,-334.4166"/>
<polygon fill="#c0c0c0" stroke="#c0c0c0" stroke-width="2" points="337.0763,-334.4132 333.5762,-324.4133 330.0763,-334.4133 337.0763,-334.4132"/>
</g>
<!-- 5 -->
<g id="node6" class="node">
<title>5</title>
<path fill="none" stroke="#566bd8" stroke-width="2" d="M472.1201,-540C472.1201,-540 405.0322,-540 405.0322,-540 399.0322,-540 393.0322,-534 393.0322,-528 393.0322,-528 393.0322,-516 393.0322,-516 393.0322,-510 399.0322,-504 405.0322,-504 405.0322,-504 472.1201,-504 472.1201,-504 478.1201,-504 484.1201,-510 484.1201,-516 484.1201,-516 484.1201,-528 484.1201,-528 484.1201,-534 478.1201,-540 472.1201,-540"/>
<text text-anchor="middle" x="438.5762" y="-519" font-family="sans" font-size="10.00" fill="#000000">demultiplex_qcat</text>
</g>
<!-- 5&#45;&gt;2 -->
<g id="edge5" class="edge">
<title>5&#45;&gt;2</title>
<path fill="none" stroke="#c0c0c0" stroke-width="2" d="M467.0082,-503.9601C478.7989,-494.7801 491.1966,-482.4872 497.5762,-468 504.0244,-453.3569 504.6484,-446.3521 497.5762,-432 471.1292,-378.3297 409.6224,-341.1426 369.9057,-321.7209"/>
<polygon fill="#c0c0c0" stroke="#c0c0c0" stroke-width="2" points="371.3371,-318.526 360.8031,-317.3931 368.3314,-324.8479 371.3371,-318.526"/>
</g>
<!-- 13 -->
<g id="node14" class="node">
<title>13</title>
<path fill="none" stroke="#d86e56" stroke-width="2" d="M476.5794,-468C476.5794,-468 400.573,-468 400.573,-468 394.573,-468 388.573,-462 388.573,-456 388.573,-456 388.573,-444 388.573,-444 388.573,-438 394.573,-432 400.573,-432 400.573,-432 476.5794,-432 476.5794,-432 482.5794,-432 488.5794,-438 488.5794,-444 488.5794,-444 488.5794,-456 488.5794,-456 488.5794,-462 482.5794,-468 476.5794,-468"/>
<text text-anchor="middle" x="438.5762" y="-452" font-family="sans" font-size="10.00" fill="#000000">fastq_to_fasta</text>
<text text-anchor="middle" x="438.5762" y="-442" font-family="sans" font-size="10.00" fill="#000000">barcode: barcodeX</text>
</g>
<!-- 5&#45;&gt;13 -->
<g id="edge32" class="edge">
<title>5&#45;&gt;13</title>
<path fill="none" stroke="#c0c0c0" stroke-width="2" d="M438.5762,-503.8314C438.5762,-496.131 438.5762,-486.9743 438.5762,-478.4166"/>
<polygon fill="#c0c0c0" stroke="#c0c0c0" stroke-width="2" points="442.0763,-478.4132 438.5762,-468.4133 435.0763,-478.4133 442.0763,-478.4132"/>
</g>
<!-- 6 -->
<g id="node7" class="node">
<title>6</title>
<path fill="none" stroke="#b6d856" stroke-width="2" stroke-dasharray="5,2" d="M319.4557,-540C319.4557,-540 233.6966,-540 233.6966,-540 227.6966,-540 221.6966,-534 221.6966,-528 221.6966,-528 221.6966,-516 221.6966,-516 221.6966,-510 227.6966,-504 233.6966,-504 233.6966,-504 319.4557,-504 319.4557,-504 325.4557,-504 331.4557,-510 331.4557,-516 331.4557,-516 331.4557,-528 331.4557,-528 331.4557,-534 325.4557,-540 319.4557,-540"/>
<text text-anchor="middle" x="276.5762" y="-519" font-family="sans" font-size="10.00" fill="#000000">make_amplicon_files</text>
</g>
<!-- 6&#45;&gt;2 -->
<g id="edge6" class="edge">
<title>6&#45;&gt;2</title>
<path fill="none" stroke="#c0c0c0" stroke-width="2" d="M275.722,-503.5103C275.2829,-493.0847 274.795,-479.8186 274.5762,-468 274.28,-452.0027 272.1124,-447.8092 274.5762,-432 279.749,-398.8076 283.0067,-390.2692 297.5762,-360 302.0735,-350.6565 307.9898,-341.0521 313.7237,-332.5819"/>
<polygon fill="#c0c0c0" stroke="#c0c0c0" stroke-width="2" points="316.7053,-334.4254 319.5658,-324.2241 310.968,-330.415 316.7053,-334.4254"/>
</g>
<!-- 6&#45;&gt;4 -->
<g id="edge13" class="edge">
<title>6&#45;&gt;4</title>
<path fill="none" stroke="#c0c0c0" stroke-width="2" d="M276.09,-503.9659C276.2328,-485.2124 278.3118,-455.3828 288.5762,-432 293.0368,-421.8384 300.0067,-412.0821 307.1403,-403.7254"/>
<polygon fill="#c0c0c0" stroke="#c0c0c0" stroke-width="2" points="309.8528,-405.9439 313.9533,-396.1747 304.6556,-401.2545 309.8528,-405.9439"/>
</g>
<!-- 12 -->
<g id="node13" class="node">
<title>12</title>
<path fill="none" stroke="#d8cb56" stroke-width="2" stroke-dasharray="5,2" d="M357.776,-468C357.776,-468 309.3763,-468 309.3763,-468 303.3763,-468 297.3763,-462 297.3763,-456 297.3763,-456 297.3763,-444 297.3763,-444 297.3763,-438 303.3763,-432 309.3763,-432 309.3763,-432 357.776,-432 357.776,-432 363.776,-432 369.776,-438 369.776,-444 369.776,-444 369.776,-456 369.776,-456 369.776,-462 363.776,-468 357.776,-468"/>
<text text-anchor="middle" x="333.5762" y="-447" font-family="sans" font-size="10.00" fill="#000000">makeblastdb</text>
</g>
<!-- 6&#45;&gt;12 -->
<g id="edge31" class="edge">
<title>6&#45;&gt;12</title>
<path fill="none" stroke="#c0c0c0" stroke-width="2" d="M290.9597,-503.8314C297.5248,-495.5386 305.4269,-485.557 312.6339,-476.4533"/>
<polygon fill="#c0c0c0" stroke="#c0c0c0" stroke-width="2" points="315.5361,-478.4262 318.999,-468.4133 310.0478,-474.0813 315.5361,-478.4262"/>
</g>
<!-- 7&#45;&gt;3 -->
<g id="edge7" class="edge">
<title>7&#45;&gt;3</title>
<path fill="none" stroke="#c0c0c0" stroke-width="2" d="M87.1837,-218.612C90.0158,-217.7034 92.8314,-216.8247 95.5762,-216 147.0377,-200.5369 206.3842,-185.6014 249.0042,-175.3726"/>
<polygon fill="#c0c0c0" stroke="#c0c0c0" stroke-width="2" points="250.0056,-178.732 258.9194,-173.0054 248.38,-171.9233 250.0056,-178.732"/>
</g>
<!-- 8&#45;&gt;3 -->
<g id="edge8" class="edge">
<title>8&#45;&gt;3</title>
<path fill="none" stroke="#c0c0c0" stroke-width="2" d="M188.4462,-215.8314C209.4839,-206.2446 235.4745,-194.4008 257.7158,-184.2655"/>
<polygon fill="#c0c0c0" stroke="#c0c0c0" stroke-width="2" points="259.3444,-187.3697 266.9928,-180.038 256.4417,-180.9999 259.3444,-187.3697"/>
</g>
<!-- 9&#45;&gt;3 -->
<g id="edge9" class="edge">
<title>9&#45;&gt;3</title>
<path fill="none" stroke="#c0c0c0" stroke-width="2" d="M266.9503,-215.8314C272.9924,-207.6232 280.2524,-197.7606 286.8982,-188.7323"/>
<polygon fill="#c0c0c0" stroke="#c0c0c0" stroke-width="2" points="289.9124,-190.5415 293.022,-180.4133 284.2751,-186.3918 289.9124,-190.5415"/>
</g>
<!-- 10&#45;&gt;3 -->
<g id="edge10" class="edge">
<title>10&#45;&gt;3</title>
<path fill="none" stroke="#c0c0c0" stroke-width="2" d="M345.4544,-215.8314C339.5263,-207.6232 332.4032,-197.7606 325.8828,-188.7323"/>
<polygon fill="#c0c0c0" stroke="#c0c0c0" stroke-width="2" points="328.567,-186.4708 319.8746,-180.4133 322.8922,-190.5693 328.567,-186.4708"/>
</g>
<!-- 11&#45;&gt;3 -->
<g id="edge11" class="edge">
<title>11&#45;&gt;3</title>
<path fill="none" stroke="#c0c0c0" stroke-width="2" d="M423.9584,-215.8314C403.0539,-206.2446 377.2278,-194.4008 355.1273,-184.2655"/>
<polygon fill="#c0c0c0" stroke="#c0c0c0" stroke-width="2" points="356.4578,-181.0252 345.909,-180.038 353.5397,-187.388 356.4578,-181.0252"/>
</g>
<!-- 12&#45;&gt;4 -->
<g id="edge12" class="edge">
<title>12&#45;&gt;4</title>
<path fill="none" stroke="#c0c0c0" stroke-width="2" d="M333.5762,-431.8314C333.5762,-424.131 333.5762,-414.9743 333.5762,-406.4166"/>
<polygon fill="#c0c0c0" stroke="#c0c0c0" stroke-width="2" points="337.0763,-406.4132 333.5762,-396.4133 330.0763,-406.4133 337.0763,-406.4132"/>
</g>
<!-- 13&#45;&gt;4 -->
<g id="edge14" class="edge">
<title>13&#45;&gt;4</title>
<path fill="none" stroke="#c0c0c0" stroke-width="2" d="M412.0802,-431.8314C398.8988,-422.7927 382.7914,-411.7476 368.6051,-402.0198"/>
<polygon fill="#c0c0c0" stroke="#c0c0c0" stroke-width="2" points="370.2903,-398.9316 360.0636,-396.1628 366.3316,-404.7047 370.2903,-398.9316"/>
</g>
<!-- 14 -->
<g id="node15" class="node">
<title>14</title>
<path fill="none" stroke="#56d89a" stroke-width="2" d="M243.4132,-612C243.4132,-612 143.7392,-612 143.7392,-612 137.7392,-612 131.7392,-606 131.7392,-600 131.7392,-600 131.7392,-588 131.7392,-588 131.7392,-582 137.7392,-576 143.7392,-576 143.7392,-576 243.4132,-576 243.4132,-576 249.4132,-576 255.4132,-582 255.4132,-588 255.4132,-588 255.4132,-600 255.4132,-600 255.4132,-606 249.4132,-612 243.4132,-612"/>
<text text-anchor="middle" x="193.5762" y="-596" font-family="sans" font-size="10.00" fill="#000000">gather</text>
<text text-anchor="middle" x="193.5762" y="-586" font-family="sans" font-size="10.00" fill="#000000">run_name: norovirus_2k</text>
</g>
<!-- 14&#45;&gt;5 -->
<g id="edge15" class="edge">
<title>14&#45;&gt;5</title>
<path fill="none" stroke="#c0c0c0" stroke-width="2" d="M255.0838,-575.9243C294.3794,-564.3762 344.9169,-549.5244 383.0017,-538.3321"/>
<polygon fill="#c0c0c0" stroke="#c0c0c0" stroke-width="2" points="384.289,-541.6019 392.8964,-535.4243 382.3153,-534.8859 384.289,-541.6019"/>
</g>
<!-- 14&#45;&gt;7 -->
<g id="edge17" class="edge">
<title>14&#45;&gt;7</title>
<path fill="none" stroke="#c0c0c0" stroke-width="2" d="M161.455,-575.9113C124.1244,-552.2362 67.5762,-506.9709 67.5762,-450 67.5762,-450 67.5762,-450 67.5762,-378 67.5762,-337.1433 58.0597,-290.6424 51.0117,-261.8061"/>
<polygon fill="#c0c0c0" stroke="#c0c0c0" stroke-width="2" points="54.3847,-260.8675 48.549,-252.0247 47.5965,-262.5766 54.3847,-260.8675"/>
</g>
<!-- 14&#45;&gt;8 -->
<g id="edge20" class="edge">
<title>14&#45;&gt;8</title>
<path fill="none" stroke="#c0c0c0" stroke-width="2" d="M171.6384,-575.9897C161.1545,-566.3187 149.2491,-553.6033 141.5762,-540 121.2379,-503.9426 117.5762,-491.3978 117.5762,-450 117.5762,-450 117.5762,-450 117.5762,-378 117.5762,-337.0037 129.7329,-290.8829 138.8208,-262.1326"/>
<polygon fill="#c0c0c0" stroke="#c0c0c0" stroke-width="2" points="142.2321,-262.9603 142.0019,-252.3679 135.5764,-260.7919 142.2321,-262.9603"/>
</g>
<!-- 14&#45;&gt;9 -->
<g id="edge23" class="edge">
<title>14&#45;&gt;9</title>
<path fill="none" stroke="#c0c0c0" stroke-width="2" d="M185.5173,-575.7668C174.3628,-548.8248 155.5762,-496.5405 155.5762,-450 155.5762,-450 155.5762,-450 155.5762,-378 155.5762,-336.4855 157.0523,-322.2065 180.5762,-288 188.6267,-276.2935 200.0565,-266.1368 211.4884,-257.8897"/>
<polygon fill="#c0c0c0" stroke="#c0c0c0" stroke-width="2" points="213.4879,-260.7625 219.7646,-252.227 209.5351,-254.9853 213.4879,-260.7625"/>
</g>
<!-- 14&#45;&gt;10 -->
<g id="edge26" class="edge">
<title>14&#45;&gt;10</title>
<path fill="none" stroke="#c0c0c0" stroke-width="2" d="M255.6319,-588.5219C331.6885,-580.8436 455.2015,-564.9567 493.5762,-540 534.0851,-513.6553 554.5762,-498.322 554.5762,-450 554.5762,-450 554.5762,-450 554.5762,-378 554.5762,-340.9259 462.3504,-286.9567 404.4251,-256.716"/>
<polygon fill="#c0c0c0" stroke="#c0c0c0" stroke-width="2" points="405.9328,-253.5554 395.4423,-252.0725 402.7183,-259.7737 405.9328,-253.5554"/>
</g>
<!-- 14&#45;&gt;11 -->
<g id="edge29" class="edge">
<title>14&#45;&gt;11</title>
<path fill="none" stroke="#c0c0c0" stroke-width="2" d="M255.7356,-589.791C339.9805,-583.1196 485.017,-567.9184 529.5762,-540 570.9519,-514.0761 592.5762,-498.8262 592.5762,-450 592.5762,-450 592.5762,-450 592.5762,-378 592.5762,-324.8646 543.2453,-282.3793 505.5953,-257.6917"/>
<polygon fill="#c0c0c0" stroke="#c0c0c0" stroke-width="2" points="507.1142,-254.51 496.7969,-252.101 503.36,-260.4182 507.1142,-254.51"/>
</g>
<!-- 15 -->
<g id="node16" class="node">
<title>15</title>
<path fill="none" stroke="#70d856" stroke-width="2" d="M271.4181,-324C271.4181,-324 201.7342,-324 201.7342,-324 195.7342,-324 189.7342,-318 189.7342,-312 189.7342,-312 189.7342,-300 189.7342,-300 189.7342,-294 195.7342,-288 201.7342,-288 201.7342,-288 271.4181,-288 271.4181,-288 277.4181,-288 283.4181,-294 283.4181,-300 283.4181,-300 283.4181,-312 283.4181,-312 283.4181,-318 277.4181,-324 271.4181,-324"/>
<text text-anchor="middle" x="236.5762" y="-303" font-family="sans" font-size="10.00" fill="#000000">nanopolish_index</text>
</g>
<!-- 14&#45;&gt;15 -->
<g id="edge33" class="edge">
<title>14&#45;&gt;15</title>
<path fill="none" stroke="#c0c0c0" stroke-width="2" d="M196.266,-575.9843C203.5358,-527.2939 223.617,-392.7961 232.3871,-334.0573"/>
<polygon fill="#c0c0c0" stroke="#c0c0c0" stroke-width="2" points="235.8722,-334.4161 233.8873,-324.0089 228.9489,-333.3824 235.8722,-334.4161"/>
</g>
<!-- 15&#45;&gt;7 -->
<g id="edge18" class="edge">
<title>15&#45;&gt;7</title>
<path fill="none" stroke="#c0c0c0" stroke-width="2" d="M189.3631,-288.3868C161.3898,-277.9512 125.8636,-264.6979 96.8847,-253.8871"/>
<polygon fill="#c0c0c0" stroke="#c0c0c0" stroke-width="2" points="97.9211,-250.5382 87.3285,-250.3221 95.4744,-257.0967 97.9211,-250.5382"/>
</g>
<!-- 15&#45;&gt;8 -->
<g id="edge21" class="edge">
<title>15&#45;&gt;8</title>
<path fill="none" stroke="#c0c0c0" stroke-width="2" d="M214.3701,-287.8314C203.5312,-278.9632 190.3318,-268.1637 178.6084,-258.5718"/>
<polygon fill="#c0c0c0" stroke="#c0c0c0" stroke-width="2" points="180.7311,-255.7864 170.7752,-252.1628 176.2984,-261.2041 180.7311,-255.7864"/>
</g>
<!-- 15&#45;&gt;9 -->
<g id="edge24" class="edge">
<title>15&#45;&gt;9</title>
<path fill="none" stroke="#c0c0c0" stroke-width="2" d="M240.866,-287.8314C242.6841,-280.131 244.8461,-270.9743 246.8667,-262.4166"/>
<polygon fill="#c0c0c0" stroke="#c0c0c0" stroke-width="2" points="250.3369,-262.95 249.2286,-252.4133 243.5243,-261.3414 250.3369,-262.95"/>
</g>
<!-- 15&#45;&gt;10 -->
<g id="edge27" class="edge">
<title>15&#45;&gt;10</title>
<path fill="none" stroke="#c0c0c0" stroke-width="2" d="M267.3619,-287.8314C282.9665,-278.6221 302.1002,-267.3301 318.8065,-257.4706"/>
<polygon fill="#c0c0c0" stroke="#c0c0c0" stroke-width="2" points="320.9671,-260.2596 327.8003,-252.1628 317.4093,-254.2312 320.9671,-260.2596"/>
</g>
<!-- 15&#45;&gt;11 -->
<g id="edge30" class="edge">
<title>15&#45;&gt;11</title>
<path fill="none" stroke="#c0c0c0" stroke-width="2" d="M283.5073,-291.9904C316.6158,-281.9999 362.2267,-268.0229 410.2796,-252.3819"/>
<polygon fill="#c0c0c0" stroke="#c0c0c0" stroke-width="2" points="411.5012,-255.6649 419.9197,-249.2322 409.3272,-249.011 411.5012,-255.6649"/>
</g>
</g>
</svg>
